<svg id="ba776c1d-3fb4-44fa-abdd-f890cc6980e1" data-name="Layer 1" xmlns="http://www.w3.org/2000/svg" viewBox="0 0 260.44 122.58"><defs><style>.aa5ac9bc-1175-45f3-a5f7-01c240924beb{fill:#272626;}</style></defs><title>lodi-logo</title><path class="aa5ac9bc-1175-45f3-a5f7-01c240924beb" d="M134.8,7.12l0,0-3,3,2.36,2.36,3.06-3.06h0A20.93,20.93,0,0,1,152,3.35V0A24.36,24.36,0,0,0,134.8,7.12"/><path class="aa5ac9bc-1175-45f3-a5f7-01c240924beb" d="M123.92,41.63h0L127,38.54l-2.37-2.36-3.08,3.08h0a21,21,0,0,1-14.86,6.13v3.35a24.33,24.33,0,0,0,17.22-7.11"/><path class="aa5ac9bc-1175-45f3-a5f7-01c240924beb" d="M137.18,39.26h0l-22.7-22.7h0a11,11,0,0,0-7.77-3.2V16.7a7.62,7.62,0,0,1,5.41,2.23h0l0,0h0l22.67,22.68h0A24.33,24.33,0,0,0,152,48.74V45.39a20.93,20.93,0,0,1-14.86-6.13"/><path class="aa5ac9bc-1175-45f3-a5f7-01c240924beb" d="M144.25,16.58h0l-3.06,3.05L143.54,22l3-3,0,0A7.67,7.67,0,0,1,152,16.7V13.36a11,11,0,0,0-7.79,3.22"/><path class="aa5ac9bc-1175-45f3-a5f7-01c240924beb" d="M121.56,9.48h0l22.7,22.7h0a11,11,0,0,0,7.78,3.2V32a7.57,7.57,0,0,1-5.41-2.22h0L124,7.14h0A24.34,24.34,0,0,0,106.7,0V3.35a21,21,0,0,1,14.86,6.13"/><path class="aa5ac9bc-1175-45f3-a5f7-01c240924beb" d="M114.47,32.18h0l3.08-3.09-2.36-2.36-3.09,3.09h0A7.57,7.57,0,0,1,106.7,32v3.35a11,11,0,0,0,7.77-3.2"/><path class="aa5ac9bc-1175-45f3-a5f7-01c240924beb" d="M116.84,14.2l22.7,22.7h0A17.62,17.62,0,0,0,152,42.06V38.71a14.26,14.26,0,0,1-10.14-4.17h0l-22.7-22.7h0a17.66,17.66,0,0,0-12.5-5.16V10a14.31,14.31,0,0,1,10.14,4.17Z"/><path class="aa5ac9bc-1175-45f3-a5f7-01c240924beb" d="M119.2,36.9h0l3.08-3.08-2.36-2.36-3.08,3.08h0a14.31,14.31,0,0,1-10.14,4.17v3.35a17.67,17.67,0,0,0,12.5-5.16"/><path class="aa5ac9bc-1175-45f3-a5f7-01c240924beb" d="M139.52,11.85v0l-3,3.05,2.36,2.36,3.05-3.05h0l0,0h0A14.26,14.26,0,0,1,152,10V6.68a17.63,17.63,0,0,0-12.52,5.17"/><polygon class="aa5ac9bc-1175-45f3-a5f7-01c240924beb" points="0 73.55 4.64 73.55 4.64 90.43 15.15 90.43 15.15 94.64 0 94.64 0 73.55"/><path class="aa5ac9bc-1175-45f3-a5f7-01c240924beb" d="M30,84.16V84.1A10.91,10.91,0,0,1,41.24,73.19,10.8,10.8,0,0,1,52.41,84v.06A10.9,10.9,0,0,1,41.18,95,10.81,10.81,0,0,1,30,84.16m17.56,0V84.1a6.4,6.4,0,0,0-6.38-6.63A6.31,6.31,0,0,0,34.85,84v.06a6.41,6.41,0,0,0,6.39,6.63,6.31,6.31,0,0,0,6.32-6.57"/><path class="aa5ac9bc-1175-45f3-a5f7-01c240924beb" d="M69.05,73.55h8.22c6.63,0,11.21,4.55,11.21,10.49v.06c0,5.93-4.58,10.54-11.21,10.54H69.05Zm8.22,16.91a6,6,0,0,0,6.36-6.3V84.1a6.06,6.06,0,0,0-6.36-6.36H73.69V90.46Z"/><rect class="aa5ac9bc-1175-45f3-a5f7-01c240924beb" x="105.6" y="73.55" width="4.64" height="21.09"/><polygon class="aa5ac9bc-1175-45f3-a5f7-01c240924beb" points="140.46 73.55 145.43 73.55 149.8 87.83 154.53 73.49 158.5 73.49 163.24 87.83 167.6 73.55 172.46 73.55 165.25 94.8 161.22 94.8 156.46 81 151.69 94.8 147.66 94.8 140.46 73.55"/><rect class="aa5ac9bc-1175-45f3-a5f7-01c240924beb" x="187.72" y="73.55" width="4.64" height="21.09"/><polygon class="aa5ac9bc-1175-45f3-a5f7-01c240924beb" points="209.01 73.55 213.29 73.55 223.17 86.54 223.17 73.55 227.75 73.55 227.75 94.64 223.8 94.64 213.59 81.24 213.59 94.64 209.01 94.64 209.01 73.55"/><polygon class="aa5ac9bc-1175-45f3-a5f7-01c240924beb" points="244.38 73.55 260.29 73.55 260.29 77.68 248.99 77.68 248.99 81.96 258.93 81.96 258.93 86.09 248.99 86.09 248.99 90.52 260.44 90.52 260.44 94.64 244.38 94.64 244.38 73.55"/><path class="aa5ac9bc-1175-45f3-a5f7-01c240924beb" d="M49.62,117.09v0a5.41,5.41,0,0,1,5.56-5.51,5.51,5.51,0,0,1,4.2,1.64l-1.49,1.72a4,4,0,0,0-2.73-1.2A3.15,3.15,0,0,0,52.07,117v0a3.16,3.16,0,0,0,3.09,3.35,3.83,3.83,0,0,0,2.8-1.25l1.5,1.51a5.47,5.47,0,0,1-4.37,1.91A5.39,5.39,0,0,1,49.62,117.09Z"/><path class="aa5ac9bc-1175-45f3-a5f7-01c240924beb" d="M71.69,111.65h2.17l4.57,10.74H76L75,120H70.49l-1,2.39h-2.4Zm2.47,6.28-1.41-3.46-1.42,3.46Z"/><path class="aa5ac9bc-1175-45f3-a5f7-01c240924beb" d="M86.78,111.73h2.35v8.53h5.31v2.13H86.78Z"/><path class="aa5ac9bc-1175-45f3-a5f7-01c240924beb" d="M103,111.73h2.35v10.66H103Z"/><path class="aa5ac9bc-1175-45f3-a5f7-01c240924beb" d="M114.74,111.73h8.12v2.13h-5.77v2.27h5.08v2.13h-5.08v4.13h-2.35Z"/><path class="aa5ac9bc-1175-45f3-a5f7-01c240924beb" d="M131,117.09v0a5.67,5.67,0,0,1,11.33,0v0a5.67,5.67,0,0,1-11.33,0Zm8.88,0v0a3.24,3.24,0,0,0-3.23-3.35,3.19,3.19,0,0,0-3.2,3.32v0a3.24,3.24,0,0,0,3.23,3.35A3.19,3.19,0,0,0,139.85,117.09Z"/><path class="aa5ac9bc-1175-45f3-a5f7-01c240924beb" d="M151.1,111.73H156a4.25,4.25,0,0,1,3.11,1.08,3.37,3.37,0,0,1,.91,2.44v0a3.31,3.31,0,0,1-2.28,3.3l2.6,3.81h-2.74L155.29,119h-1.85v3.41H151.1Zm4.72,5.18c1.14,0,1.8-.61,1.8-1.51v0c0-1-.7-1.52-1.85-1.52h-2.33v3.06Z"/><path class="aa5ac9bc-1175-45f3-a5f7-01c240924beb" d="M168.82,111.73H171l5,6.56v-6.56h2.31v10.66h-2l-5.17-6.78v6.78h-2.31Z"/><path class="aa5ac9bc-1175-45f3-a5f7-01c240924beb" d="M187.65,111.73H190v10.66h-2.35Z"/><path class="aa5ac9bc-1175-45f3-a5f7-01c240924beb" d="M203,111.65h2.16l4.57,10.74h-2.45l-1-2.39h-4.51l-1,2.39h-2.39Zm2.46,6.28-1.41-3.46-1.42,3.46Z"/></svg>