<svg id="af5522ed-67b7-46b3-a458-83fb29c8ef34" data-name="Layer 1" xmlns="http://www.w3.org/2000/svg" viewBox="0 0 502.82 145.19"><defs><style>.b348a135-f45a-47f8-b734-777f7af854a8{fill:#21543a;}</style></defs><title>logo-footer</title><path class="b348a135-f45a-47f8-b734-777f7af854a8" d="M500.71,39.24l.07,13.21-3.89,0,0-8.84-4.3,0,0,7.59h-3.65l0-7.58-6.9,0,0-4.36Z"/><path class="b348a135-f45a-47f8-b734-777f7af854a8" d="M491.05,64.31a2.24,2.24,0,0,0,1.16-.48,2.71,2.71,0,0,0,.84-1.07,3.23,3.23,0,0,0,.29-1.42,3.42,3.42,0,0,0-.42-1.67,3.07,3.07,0,0,0-1.35-1.23,5.15,5.15,0,0,0-2.33-.45,5,5,0,0,0-2.16.42,2.88,2.88,0,0,0-1.34,1.15,3.18,3.18,0,0,0-.45,1.72,3.78,3.78,0,0,0,.19,1.23,2.3,2.3,0,0,0,.51.84,2,2,0,0,0,.79.47l0,4.55a6.29,6.29,0,0,1-2.5-1.26,7.35,7.35,0,0,1-1.91-2.43,7.49,7.49,0,0,1-.75-3.31,7.59,7.59,0,0,1,1-3.89,7.18,7.18,0,0,1,2.75-2.69,8.08,8.08,0,0,1,7.6,0,7.3,7.3,0,0,1,3.82,6.55,7.18,7.18,0,0,1-1,3.84,6.88,6.88,0,0,1-2.71,2.59,7.88,7.88,0,0,1-3.74.93l-.58,0-.6,0-.06-11.31,2.88.21Z"/><path class="b348a135-f45a-47f8-b734-777f7af854a8" d="M481.7,77.19a7.71,7.71,0,0,1,.72-3.5,5,5,0,0,1,1.89-2.11,4.86,4.86,0,0,1,2.51-.71v4.07a2,2,0,0,0-.94.29,1.72,1.72,0,0,0-.62.75A2.8,2.8,0,0,0,485,77.2a2.94,2.94,0,0,0,.17,1.08,1.21,1.21,0,0,0,.45.59,1.16,1.16,0,0,0,.68.19.87.87,0,0,0,.67-.27,1.82,1.82,0,0,0,.4-.79,10.15,10.15,0,0,0,.27-1.41,9.37,9.37,0,0,1,.69-2.69,4.39,4.39,0,0,1,1.48-1.85,4,4,0,0,1,2.4-.69,4.44,4.44,0,0,1,2.48.65,4.12,4.12,0,0,1,1.59,1.92,8.47,8.47,0,0,1,0,6.16,4.93,4.93,0,0,1-1.7,2.12,4.3,4.3,0,0,1-2.53.77V78.84a1.63,1.63,0,0,0,.72-.25,1.29,1.29,0,0,0,.49-.6,2.44,2.44,0,0,0,.17-1,2,2,0,0,0-.15-.84,1,1,0,0,0-.94-.65,1,1,0,0,0-.63.19,1.37,1.37,0,0,0-.37.69,13.7,13.7,0,0,0-.32,1.71c0,.09,0,.19,0,.29l-.06.29a9.88,9.88,0,0,1-.76,2.59,3.72,3.72,0,0,1-1.35,1.57,4.16,4.16,0,0,1-2.23.55,4.38,4.38,0,0,1-2.71-.8,4.81,4.81,0,0,1-1.64-2.21A9,9,0,0,1,481.7,77.19Z"/><path class="b348a135-f45a-47f8-b734-777f7af854a8" d="M482.25,92.63a6.52,6.52,0,0,1,.39-2.39,3.64,3.64,0,0,1,1.62-1.82,6.81,6.81,0,0,1,3.53-.76l5.09,0V84.89l3.61,0v2.74l4.12,0,0,4.24-4.14,0,0,3.85-3.61,0,0-3.86-5.28,0a2.28,2.28,0,0,0-1.08.22,1.36,1.36,0,0,0-.61.57,1.78,1.78,0,0,0-.18.83v2.24l-3.5,0Z"/><path class="b348a135-f45a-47f8-b734-777f7af854a8" d="M496.54,98.77c0,.51,0,1,0,1.48s0,1,0,1.42,0,.91,0,1.34l-14.27.07,0-4.24Zm1.69,2.1a2.81,2.81,0,0,1,.3-1.33,2.09,2.09,0,0,1,.82-.87,2.28,2.28,0,0,1,1.16-.3,2.2,2.2,0,0,1,1.16.29,2.09,2.09,0,0,1,.83.86,2.74,2.74,0,0,1,.32,1.34,2.92,2.92,0,0,1-.3,1.37,2.25,2.25,0,0,1-.83.87,2.41,2.41,0,0,1-2.33,0,2.06,2.06,0,0,1-.82-.88A3,3,0,0,1,498.23,100.87Z"/><path class="b348a135-f45a-47f8-b734-777f7af854a8" d="M496.58,105.46l0,4.49-7.27,2.71-1.68.41,1.68.36,7.3,2.64,0,4.51L482.36,115l0-3.9Z"/><path class="b348a135-f45a-47f8-b734-777f7af854a8" d="M482,128.31a5.85,5.85,0,0,1,1-3.37,6.75,6.75,0,0,1,2.75-2.36,9,9,0,0,1,7.63,0,7.14,7.14,0,0,1,2.77,2.34,5.76,5.76,0,0,1,1,3.33,6.43,6.43,0,0,1-.26,1.95,5.15,5.15,0,0,1-.76,1.6,4.05,4.05,0,0,1-1.24,1.13h1.83l0,4-14.26.07,0-4h1.8a4.07,4.07,0,0,1-1.23-1.11,5.07,5.07,0,0,1-.78-1.58A6.34,6.34,0,0,1,482,128.31Zm3.91,1a3.35,3.35,0,0,0,.49,1.74,3.42,3.42,0,0,0,1.35,1.23,4.06,4.06,0,0,0,1.87.44,3.89,3.89,0,0,0,1.86-.47,3.6,3.6,0,0,0,1.33-1.24,3.18,3.18,0,0,0,.48-1.73,3.36,3.36,0,0,0-.45-1.71,3.15,3.15,0,0,0-1.29-1.24,4,4,0,0,0-2-.44,4.05,4.05,0,0,0-2,.47,3.14,3.14,0,0,0-1.26,1.24A3.58,3.58,0,0,0,485.87,129.33Z"/><path class="b348a135-f45a-47f8-b734-777f7af854a8" d="M501.89,140.86l0,4.24-19.4.09,0-4.24Z"/><path class="b348a135-f45a-47f8-b734-777f7af854a8" d="M459.77,38.44,465,44.17c.82.89,1.51,1.59,2.07,2.11a8.1,8.1,0,0,0,1.62,1.19,3.26,3.26,0,0,0,1.54.41,2.42,2.42,0,0,0,1.17-.3,2,2,0,0,0,.81-.84,2.55,2.55,0,0,0,.29-1.26,2.85,2.85,0,0,0-.35-1.42,2.41,2.41,0,0,0-1.18-1,5.38,5.38,0,0,0-2.24-.38l0-4.31a10.57,10.57,0,0,1,3.75.66,6.32,6.32,0,0,1,2.88,2.24,6.73,6.73,0,0,1,1.15,4.06,7.64,7.64,0,0,1-.82,3.73,5.92,5.92,0,0,1-2.26,2.36,6.48,6.48,0,0,1-3.16.81,6.41,6.41,0,0,1-2.22-.39,7.61,7.61,0,0,1-2-1.14,15.55,15.55,0,0,1-2-1.89L460.7,45l.45,1.86,0,5.88h-3.74l-.07-14.25Z"/><path class="b348a135-f45a-47f8-b734-777f7af854a8" d="M457,63.41a7.72,7.72,0,0,1,1.28-4.57,7.94,7.94,0,0,1,3.51-2.78,12.91,12.91,0,0,1,4.92-.93,12.7,12.7,0,0,1,5,.93,8.05,8.05,0,0,1,3.56,2.79,7.54,7.54,0,0,1,1.33,4.45A7.74,7.74,0,0,1,475.33,68a7.65,7.65,0,0,1-3.55,2.72,13.69,13.69,0,0,1-4.9.87,13,13,0,0,1-5-.89A7.94,7.94,0,0,1,458.36,68,7.7,7.7,0,0,1,457,63.41Zm4,0a3.15,3.15,0,0,0,.73,2.07,4.61,4.61,0,0,0,2,1.32,9,9,0,0,0,3.08.45,9.19,9.19,0,0,0,3.06-.47,4.48,4.48,0,0,0,2-1.36,3.19,3.19,0,0,0,.71-2.09,3.12,3.12,0,0,0-.73-2A4.52,4.52,0,0,0,469.88,60a10.06,10.06,0,0,0-6.14,0,4.36,4.36,0,0,0-2,1.36A3.18,3.18,0,0,0,461,63.39Z"/><path class="b348a135-f45a-47f8-b734-777f7af854a8" d="M459.94,74l5.25,5.73c.81.89,1.5,1.59,2.07,2.12A8.52,8.52,0,0,0,468.88,83a3.24,3.24,0,0,0,1.53.4,2.32,2.32,0,0,0,1.17-.3,2,2,0,0,0,.82-.83,2.72,2.72,0,0,0,.29-1.26,3,3,0,0,0-.35-1.43,2.6,2.6,0,0,0-1.19-1,5.36,5.36,0,0,0-2.24-.37l0-4.31a10.14,10.14,0,0,1,3.75.66,6.35,6.35,0,0,1,2.89,2.24,6.77,6.77,0,0,1,1.15,4.05,7.61,7.61,0,0,1-.83,3.73A5.79,5.79,0,0,1,473.59,87a6.38,6.38,0,0,1-3.16.82,6.31,6.31,0,0,1-2.21-.39,7.78,7.78,0,0,1-2-1.15,14.29,14.29,0,0,1-2-1.89l-3.35-3.87.45,1.86,0,5.88-3.75,0L457.53,74Z"/><path class="b348a135-f45a-47f8-b734-777f7af854a8" d="M457.2,99a7.66,7.66,0,0,1,1.29-4.58A7.84,7.84,0,0,1,462,91.6a12.72,12.72,0,0,1,4.92-.93,12.88,12.88,0,0,1,5,.92,8.17,8.17,0,0,1,3.57,2.79,7.64,7.64,0,0,1,1.33,4.46,7.4,7.4,0,0,1-4.88,7.42,13.73,13.73,0,0,1-4.9.87,13,13,0,0,1-5-.89,7.85,7.85,0,0,1-3.56-2.75A7.67,7.67,0,0,1,457.2,99Zm4,0a3.12,3.12,0,0,0,.72,2.06,4.52,4.52,0,0,0,2,1.33,9.52,9.52,0,0,0,3.08.45,9.38,9.38,0,0,0,3-.48,4.46,4.46,0,0,0,2-1.35,3.16,3.16,0,0,0,.71-2.1,3,3,0,0,0-.73-2,4.56,4.56,0,0,0-2.05-1.34A9.06,9.06,0,0,0,467,95a9.45,9.45,0,0,0-3.06.48,4.49,4.49,0,0,0-2,1.36A3.15,3.15,0,0,0,461.2,98.93Z"/><path class="b348a135-f45a-47f8-b734-777f7af854a8" d="M41.47,64.31a13.6,13.6,0,0,0,2.6-4.46A15.71,15.71,0,0,0,45,54.44a14.74,14.74,0,0,0-2.06-7.66,14.27,14.27,0,0,0-5.6-5.32,16.7,16.7,0,0,0-8.1-1.88l-29,.14L.36,82l11.4,0L11.7,69.46l14.6-.07,7.08,12.42,13-.06-9-14.28A14.15,14.15,0,0,0,41.47,64.31Zm-8.55-7.09a5.2,5.2,0,0,1-1.73,2,4.31,4.31,0,0,1-2.39.73L11.65,60,11.6,49.14l17.18-.08a3.94,3.94,0,0,1,2.36.75,5.44,5.44,0,0,1,1.75,2,5.89,5.89,0,0,1,0,5.4Z"/><path class="b348a135-f45a-47f8-b734-777f7af854a8" d="M78.65,83.15a42.11,42.11,0,0,0,15.72-2.73,22.12,22.12,0,0,0,10.08-7.71,20.24,20.24,0,0,0,3.45-11.92,20,20,0,0,0-3.57-11.86,21.89,21.89,0,0,0-10.15-7.58,42.28,42.28,0,0,0-15.75-2.57A42.32,42.32,0,0,0,62.71,41.5a22,22,0,0,0-10.09,7.68,20,20,0,0,0-3.47,11.9A20.13,20.13,0,0,0,52.73,73,22.05,22.05,0,0,0,62.9,80.57,42.07,42.07,0,0,0,78.65,83.15ZM60.52,61.06a9.74,9.74,0,0,1,2.13-6.34,13.3,13.3,0,0,1,6.19-4.08,29.59,29.59,0,0,1,9.64-1.45,29.65,29.65,0,0,1,9.66,1.35,13.39,13.39,0,0,1,6.23,4,10.33,10.33,0,0,1,.06,12.64,13.39,13.39,0,0,1-6.19,4.09,29.88,29.88,0,0,1-9.64,1.44,29.65,29.65,0,0,1-9.66-1.35,13.46,13.46,0,0,1-6.23-4A9.7,9.7,0,0,1,60.52,61.06Z"/><polygon class="b348a135-f45a-47f8-b734-777f7af854a8" points="149.46 52.65 162.31 81.79 173.31 81.74 191.93 39.36 179.56 39.42 169.88 61.13 168.02 67.07 167.89 67.07 165.66 61.49 155.39 39.58 143.4 39.63 133.29 61.77 131.23 67.56 131.08 67.56 129.25 61.89 119.2 39.72 106.86 39.78 125.9 81.97 136.87 81.92 149.46 52.65"/><path class="b348a135-f45a-47f8-b734-777f7af854a8" d="M317.63,64.17a13.64,13.64,0,0,0,2.57-4.44,15.61,15.61,0,0,0,.88-5.4,15,15,0,0,0-2-7.66,14.18,14.18,0,0,0-5.59-5.32,16.7,16.7,0,0,0-8.1-1.88l-43.45.25L262.11,82l11.4,0-.06-12.46,29-.18,7.08,12.42,13-.06-9-14.31A13.79,13.79,0,0,0,317.63,64.17Zm-8.53-7.06a5.2,5.2,0,0,1-1.73,2,4.31,4.31,0,0,1-2.39.73L273.4,60l0-10.84L305,49a4,4,0,0,1,2.36.74,5.55,5.55,0,0,1,1.75,2,5.89,5.89,0,0,1,0,5.4Z"/><path class="b348a135-f45a-47f8-b734-777f7af854a8" d="M359.78,40.8a24.12,24.12,0,0,0-23.19.12A22.72,22.72,0,0,0,328.22,49a21.52,21.52,0,0,0,.11,22.27,22.69,22.69,0,0,0,8.45,8A24,24,0,0,0,360,79.22a22.78,22.78,0,0,0,8.38-8.13,21.54,21.54,0,0,0-.11-22.28A22.69,22.69,0,0,0,359.78,40.8Zm-1.26,25.32a11.11,11.11,0,0,1-4.23,4.21,12.1,12.1,0,0,1-6,1.52,11.9,11.9,0,0,1-5.91-1.48,11.16,11.16,0,0,1-4.29-4.17A12.59,12.59,0,0,1,338.07,54a10.86,10.86,0,0,1,4.23-4.22,12.59,12.59,0,0,1,11.88-.06,11,11,0,0,1,4.28,4.18,12.6,12.6,0,0,1,.06,12.18Z"/><polygon class="b348a135-f45a-47f8-b734-777f7af854a8" points="431.17 39.47 423.39 61.75 421.83 67.1 421.74 67.1 420.44 62.11 412.88 39.59 400.88 39.65 393.44 62.36 392.35 67.25 392.19 67.25 390.74 62.47 382.58 39.71 370.56 39.77 386.12 81.97 397.67 81.92 406.95 53.29 416.5 81.82 428.06 81.77 443.2 39.41 431.17 39.47"/><polygon class="b348a135-f45a-47f8-b734-777f7af854a8" points="209.01 77.11 219.56 66.56 230.12 77.11 236.35 70.89 225.79 60.33 236.35 49.78 230.12 43.55 219.56 54.1 209.01 43.55 202.78 49.78 213.33 60.33 202.78 70.89 209.01 77.11"/><path class="b348a135-f45a-47f8-b734-777f7af854a8" d="M41.74,7.47c-.18-.41-.37-.83-.56-1.24a10.28,10.28,0,0,0-4.81-5A7.66,7.66,0,0,0,33.3.3c-.91,0-1.81-.32-2.71-.3A15.62,15.62,0,0,0,24.5,1.62a1.2,1.2,0,0,0-.21.13A20.27,20.27,0,0,0,20.9,4.84a11.23,11.23,0,0,0-2.13,5.61A30.11,30.11,0,0,0,19,14.79a2.08,2.08,0,0,0,.13.6,30.14,30.14,0,0,0,2.13,4.48,4,4,0,0,0,.93,1,9.71,9.71,0,0,0,1.45.94c.8.44,1.64.81,2.44,1.24a3.78,3.78,0,0,0,1.53.46,25.08,25.08,0,0,0,6.06,0A7.22,7.22,0,0,0,35,23.2c.47-.18.91-.42,1.36-.62a7.65,7.65,0,0,0,3.5-2.67,12.19,12.19,0,0,0,1.52-2.85,13.58,13.58,0,0,0,1-5.58A8.86,8.86,0,0,0,41.74,7.47Zm-6.6,8.83a3.23,3.23,0,0,1-2.49,1.82c-.86.09-1.72.19-2.59.24a3.11,3.11,0,0,1-1.75-.56A7.17,7.17,0,0,1,26,15.44a3.39,3.39,0,0,1-.47-1,10.57,10.57,0,0,1-.1-5A6,6,0,0,1,26.88,6.7a4.73,4.73,0,0,1,3.58-1.45,5.54,5.54,0,0,1,3.19.89,4.83,4.83,0,0,1,2.51,3.91c0,.41,0,.83,0,1.24A8.28,8.28,0,0,1,35.14,16.3Z"/><path class="b348a135-f45a-47f8-b734-777f7af854a8" d="M68.26,7.17A6.23,6.23,0,0,0,67,5.32a18.83,18.83,0,0,0-3.41-2.68,8.52,8.52,0,0,0-3.73-1.28c-1.51-.19-3-.29-4.57-.35-1.9-.08-3.81-.09-5.71-.1a4.57,4.57,0,0,0-1.84.33,5.44,5.44,0,0,0-.11.75c0,.7,0,1.4.05,2.11q.07,3.84.16,7.7c0,.66,0,1.33.1,2,.25,2.07.14,4.14.19,6.21a16.14,16.14,0,0,0,.16,3.19,1.91,1.91,0,0,0,.37.17,15.38,15.38,0,0,0,3.58.36c.95,0,1.9,0,2.85-.05a8.55,8.55,0,0,0,.87-.09l3-.34a14.83,14.83,0,0,0,5.83-2.3,11.34,11.34,0,0,0,2.52-2.56,7.25,7.25,0,0,0,1.45-2.86,16.61,16.61,0,0,0,.53-5.3,6.27,6.27,0,0,0-.42-1.68C68.7,8.07,68.46,7.63,68.26,7.17Zm-7.33,9.19a8.89,8.89,0,0,1-5.54,1.83c-.36,0-.73,0-1.26,0,0-1.43-.06-2.75-.07-4.07s0-2.72,0-4.08a24.13,24.13,0,0,1-.18-4,7.4,7.4,0,0,1,.82-.15,10.7,10.7,0,0,1,5,.83A4.4,4.4,0,0,1,61.35,8a7.66,7.66,0,0,1,1.5,2.55A5.32,5.32,0,0,1,60.93,16.36Z"/><path class="b348a135-f45a-47f8-b734-777f7af854a8" d="M16.16,19.63c-.26-1-.26-1-1.24-1-1.77,0-3.55,0-5.33,0a21.91,21.91,0,0,1-3.75-.13c0-.62-.07-1.15-.06-1.68,0-2.94.09-5.87.15-8.81C6,6.83,6,5.64,6,4.44c0-.79,0-1.57,0-2.36a.94.94,0,0,0-.73-1A22.46,22.46,0,0,0,2.86.84C2.41.82,2,.9,1.5.9.17.91,0,1.06.06,2.42S.15,5.15.17,6.51.11,9,.17,10.23c.11,2.48-.15,5,0,7.44C.19,19.11.05,20.56,0,22a3.52,3.52,0,0,0,0,.86,1,1,0,0,0,1,.84,2.59,2.59,0,0,0,.62,0A28.46,28.46,0,0,1,6,23.62c1.53,0,3.07,0,4.6,0s2.81-.06,4.21-.09c.25,0,.5,0,.74,0a.77.77,0,0,0,.74-.71A8,8,0,0,0,16.16,19.63Z"/><path class="b348a135-f45a-47f8-b734-777f7af854a8" d="M81.22,1.64C81.16,1,81,.87,80.38.8l-.62,0c-.87,0-1.74,0-2.61,0-1.9,0-2-.19-2,2,0,1.12.18,2.23.2,3.34.06,2.64.06,5.29.1,7.93,0,1,.08,2.07.08,3.1,0,1.78,0,3.55,0,5.33a1.22,1.22,0,0,0,.44,1.1,11.47,11.47,0,0,0,5.44-.3,7.81,7.81,0,0,0,.24-1.65c0-2.52,0-5.05,0-7.57,0-2.15,0-4.29,0-6.44C81.55,5.6,81.44,3.62,81.22,1.64Z"/></svg>