<svg id="row-by-row" xmlns="http://www.w3.org/2000/svg" viewBox="0 0 577.15 481"><defs><style>.cls-1{fill:#21543a;}</style></defs><title>logo</title><g id="festival"><path class="cls-1" d="M103.12,230.9l.15,31.17-9.16,0L94,241.24l-10.15,0L84,259.2l-8.61,0-.09-17.91L59,241.41l0-10.3Z"/><path class="cls-1" d="M80.3,290.07a5.48,5.48,0,0,0,2.76-1.13,6.55,6.55,0,0,0,2-2.53,8.29,8.29,0,0,0-.31-7.3,7.18,7.18,0,0,0-3.17-2.89A12,12,0,0,0,76,275.14a12.23,12.23,0,0,0-5.1,1,6.89,6.89,0,0,0-3.17,2.73,7.56,7.56,0,0,0-1,4.06,8.39,8.39,0,0,0,.45,2.89,5,5,0,0,0,1.21,2,5.08,5.08,0,0,0,1.84,1.13l.06,10.72a14.58,14.58,0,0,1-5.9-3,17.1,17.1,0,0,1-4.52-5.73,17.55,17.55,0,0,1-1.76-7.81A17.74,17.74,0,0,1,60.46,274,16.85,16.85,0,0,1,67,267.6a18.91,18.91,0,0,1,18-.09,17.07,17.07,0,0,1,6.55,6.27A17.55,17.55,0,0,1,93.92,283,17.1,17.1,0,0,1,91.57,292a16.38,16.38,0,0,1-6.39,6.11,18.56,18.56,0,0,1-8.82,2.19c-.48,0-.94,0-1.38,0l-1.42-.11-.13-26.68,6.8.48Z"/><path class="cls-1" d="M58.25,320.48a18,18,0,0,1,1.69-8.27,11.8,11.8,0,0,1,4.46-5,11.52,11.52,0,0,1,5.94-1.66l0,9.6a4.68,4.68,0,0,0-2.21.69,3.85,3.85,0,0,0-1.47,1.76,6.93,6.93,0,0,0-.52,2.9,7.09,7.09,0,0,0,.4,2.53,2.94,2.94,0,0,0,1.07,1.41,2.87,2.87,0,0,0,1.61.43,2.14,2.14,0,0,0,1.57-.63,4.39,4.39,0,0,0,1-1.85,26.27,26.27,0,0,0,.63-3.36A22.1,22.1,0,0,1,74,312.7a10.31,10.31,0,0,1,3.47-4.36,9.58,9.58,0,0,1,5.68-1.63A10.61,10.61,0,0,1,89,308.24a9.9,9.9,0,0,1,3.75,4.53,20,20,0,0,1-.05,14.54,11.69,11.69,0,0,1-4,5,10.3,10.3,0,0,1-6,1.82l0-9.78a3.91,3.91,0,0,0,1.69-.58,3.19,3.19,0,0,0,1.16-1.42A5.77,5.77,0,0,0,86,320a5.18,5.18,0,0,0-.35-2,2.54,2.54,0,0,0-.92-1.14,2.34,2.34,0,0,0-1.32-.37,2.24,2.24,0,0,0-1.49.43,3.3,3.3,0,0,0-.87,1.64,35,35,0,0,0-.76,4q0,.33-.09.69c0,.23-.09.46-.13.68a23.41,23.41,0,0,1-1.79,6.12,8.74,8.74,0,0,1-3.2,3.7,9.78,9.78,0,0,1-5.26,1.31,10.43,10.43,0,0,1-6.39-1.88A11.48,11.48,0,0,1,59.56,328,21,21,0,0,1,58.25,320.48Z"/><path class="cls-1" d="M59.54,356.91a16,16,0,0,1,.91-5.62A8.61,8.61,0,0,1,64.29,347q2.89-1.77,8.32-1.8l12-.06,0-6.47,8.52,0,0,6.47,9.72-.05.11,10-9.78,0,0,9.1-8.51,0,0-9.1-12.47.06a5.69,5.69,0,0,0-2.55.52,3.22,3.22,0,0,0-1.43,1.34,4.18,4.18,0,0,0-.43,2l0,5.3-8.26,0Z"/><path class="cls-1" d="M93.28,371.41c0,1.19,0,2.36,0,3.49s0,2.26,0,3.35,0,2.15,0,3.17l-33.67.17,0-10Zm4,5a6.55,6.55,0,0,1,.7-3.14,4.9,4.9,0,0,1,1.94-2.06,5.64,5.64,0,0,1,5.46,0,5,5,0,0,1,2,2,6.59,6.59,0,0,1,.75,3.16,6.8,6.8,0,0,1-.72,3.24,5.07,5.07,0,0,1-2,2.06,5.39,5.39,0,0,1-2.72.71,5.5,5.5,0,0,1-2.77-.68A4.84,4.84,0,0,1,98,379.61,7.1,7.1,0,0,1,97.27,376.37Z"/><path class="cls-1" d="M93.36,387.21l0,10.6L76.25,404.2l-4,1,4,.86,17.22,6.22,0,10.66L59.8,409.81l0-9.2Z"/><path class="cls-1" d="M58.85,441.15a13.71,13.71,0,0,1,2.37-8,16.27,16.27,0,0,1,6.48-5.58,21.23,21.23,0,0,1,18-.07A16.45,16.45,0,0,1,92.25,433a13.66,13.66,0,0,1,2.45,7.87,16.56,16.56,0,0,1-.61,4.6,12.51,12.51,0,0,1-1.82,3.78A9.71,9.71,0,0,1,89.36,452l4.32,0,0,9.49-33.67.17,0-9.52,4.25,0a9.75,9.75,0,0,1-2.9-2.61,12.06,12.06,0,0,1-1.85-3.73A15.83,15.83,0,0,1,58.85,441.15Zm9.24,2.39a7.84,7.84,0,0,0,1.16,4.13,8,8,0,0,0,3.17,2.89,9.41,9.41,0,0,0,4.42,1,9.15,9.15,0,0,0,4.39-1.09,8.35,8.35,0,0,0,3.13-2.94,7.48,7.48,0,0,0,1.15-4.07,8.1,8.1,0,0,0-1.07-4.06,7.68,7.68,0,0,0-3-2.91,9.49,9.49,0,0,0-4.64-1,9.63,9.63,0,0,0-4.7,1.11,7.4,7.4,0,0,0-3,2.94A8.15,8.15,0,0,0,68.09,443.54Z"/><path class="cls-1" d="M105.9,470.76l0,10L60.15,481l0-10Z"/><path class="cls-1" d="M6.47,229l12.39,13.52c1.92,2.1,3.54,3.76,4.88,5a19.59,19.59,0,0,0,3.82,2.81,7.51,7.51,0,0,0,3.62,1,5.45,5.45,0,0,0,2.76-.7,4.76,4.76,0,0,0,1.93-2,6.1,6.1,0,0,0,.68-3,6.75,6.75,0,0,0-.83-3.36,5.8,5.8,0,0,0-2.79-2.34,12.73,12.73,0,0,0-5.28-.88l0-10.18a24.25,24.25,0,0,1,8.85,1.57,14.87,14.87,0,0,1,6.81,5.28A16,16,0,0,1,46,245.28a18.2,18.2,0,0,1-2,8.81,13.75,13.75,0,0,1-5.33,5.56,15.36,15.36,0,0,1-12.69,1A17.81,17.81,0,0,1,21.21,258a33.49,33.49,0,0,1-4.64-4.46l-7.91-9.13,1.06,4.39.07,13.88-8.84,0L.78,229Z"/><path class="cls-1" d="M0,288a18.25,18.25,0,0,1,3-10.81,18.69,18.69,0,0,1,8.28-6.54,30.21,30.21,0,0,1,11.61-2.2,30.32,30.32,0,0,1,11.87,2.18,19.18,19.18,0,0,1,8.42,6.59,17.86,17.86,0,0,1,3.14,10.52,18.36,18.36,0,0,1-3.13,11.11,18.13,18.13,0,0,1-8.39,6.41,32.39,32.39,0,0,1-11.56,2.06,30.68,30.68,0,0,1-11.74-2.1,18.67,18.67,0,0,1-8.39-6.49A18.18,18.18,0,0,1,0,288Zm9.43-.05a7.43,7.43,0,0,0,1.71,4.87A10.71,10.71,0,0,0,16,295.9,21.88,21.88,0,0,0,23.22,297a22,22,0,0,0,7.21-1.13,10.5,10.5,0,0,0,4.81-3.19,7.54,7.54,0,0,0,1.68-4.95A7.22,7.22,0,0,0,35.19,283a10.86,10.86,0,0,0-4.84-3.16,21.49,21.49,0,0,0-7.28-1.09,21.34,21.34,0,0,0-7.23,1.14,10.5,10.5,0,0,0-4.77,3.21A7.53,7.53,0,0,0,9.43,287.9Z"/><path class="cls-1" d="M6.88,312.88,19.27,326.4c1.92,2.1,3.54,3.76,4.88,5A19.9,19.9,0,0,0,28,334.2a7.54,7.54,0,0,0,3.63.95,5.45,5.45,0,0,0,2.76-.7,4.74,4.74,0,0,0,1.92-2,6.1,6.1,0,0,0,.69-3,6.85,6.85,0,0,0-.83-3.36,5.9,5.9,0,0,0-2.79-2.34,12.81,12.81,0,0,0-5.29-.88l0-10.18a24.25,24.25,0,0,1,8.85,1.57,15,15,0,0,1,6.82,5.28,16,16,0,0,1,2.71,9.57,18,18,0,0,1-2,8.81,13.69,13.69,0,0,1-5.33,5.56,15.36,15.36,0,0,1-12.69,1,17.81,17.81,0,0,1-4.79-2.71A34.06,34.06,0,0,1,17,337.37l-7.91-9.13,1.06,4.39.07,13.88-8.84,0L1.2,312.91Z"/><path class="cls-1" d="M.42,371.83a18.11,18.11,0,0,1,3-10.81,18.61,18.61,0,0,1,8.27-6.54,30.21,30.21,0,0,1,11.61-2.2,30.29,30.29,0,0,1,11.87,2.18,19.13,19.13,0,0,1,8.42,6.59,17.86,17.86,0,0,1,3.14,10.52,18.36,18.36,0,0,1-3.13,11.11,18.16,18.16,0,0,1-8.39,6.42,32.33,32.33,0,0,1-11.55,2,30.73,30.73,0,0,1-11.75-2.1,18.65,18.65,0,0,1-8.38-6.49A18.11,18.11,0,0,1,.42,371.83Zm9.42-.05a7.43,7.43,0,0,0,1.71,4.87,10.76,10.76,0,0,0,4.81,3.13,22,22,0,0,0,7.27,1.07,21.91,21.91,0,0,0,7.21-1.13,10.5,10.5,0,0,0,4.81-3.19,7.48,7.48,0,0,0,1.68-4.95,7.21,7.21,0,0,0-1.72-4.75,10.91,10.91,0,0,0-4.84-3.16,21.59,21.59,0,0,0-7.29-1.09,21.68,21.68,0,0,0-7.23,1.14,10.52,10.52,0,0,0-4.76,3.21A7.5,7.5,0,0,0,9.84,371.78Z"/></g><g id="row-01"><path class="cls-1" d="M98.27,151.85a32.33,32.33,0,0,0,6.14-10.52,36.88,36.88,0,0,0,2.1-12.77,34.93,34.93,0,0,0-4.85-18.09A33.58,33.58,0,0,0,88.43,97.92,39.46,39.46,0,0,0,69.3,93.47L.73,93.81l.5,99.73,26.91-.13L28,164l34.46-.17,16.72,29.33,30.73-.15L88.77,159.3A33,33,0,0,0,98.27,151.85ZM78.09,135.12a12.31,12.31,0,0,1-4.08,4.6,10.2,10.2,0,0,1-5.64,1.72l-40.48.2L27.76,116l40.55-.2a9.54,9.54,0,0,1,5.59,1.77A13.09,13.09,0,0,1,78,122.36a13.61,13.61,0,0,1,1.57,6.33A13.46,13.46,0,0,1,78.09,135.12Z"/><path class="cls-1" d="M186,195.05q21.56-.11,37.11-6.45t23.79-18.2q8.22-11.84,8.15-28.13t-8.43-28q-8.34-11.74-24-17.89t-37.18-6q-21.56.11-37.11,6.41t-23.82,18.13q-8.27,11.8-8.19,28.09t8.47,28q8.38,11.76,24,18T186,195.05ZM143.25,142.9a22.9,22.9,0,0,1,5-15q5.07-6.3,14.62-9.64t22.75-3.41q13.22-.08,22.79,3.18t14.72,9.5a24.41,24.41,0,0,1,.15,29.85q-5.07,6.3-14.63,9.64t-22.75,3.41q-13.2.08-22.79-3.18t-14.71-9.5A22.94,22.94,0,0,1,143.25,142.9Z"/><polygon class="cls-1" points="353.19 122.87 383.52 191.66 409.49 191.53 453.44 91.5 424.25 91.64 401.4 142.87 396.99 156.9 396.7 156.9 391.43 143.73 367.19 92 338.88 92.14 315.01 144.4 310.17 158.06 309.8 158.07 305.48 144.67 281.75 92.35 252.64 92.49 297.57 192.08 323.46 191.96 353.19 122.87"/></g><g id="row-02"><path class="cls-1" d="M280.75,271.09a32.08,32.08,0,0,0,6.07-10.48,37,37,0,0,0,2.06-12.73,35.1,35.1,0,0,0-4.82-18.09,33.21,33.21,0,0,0-13.19-12.55,39.42,39.42,0,0,0-19.12-4.45l-102.57.59.5,99.74,26.91-.13-.14-29.41,68.53-.43,16.72,29.33,30.73-.16-21.14-33.77A32.56,32.56,0,0,0,280.75,271.09Zm-20.14-16.66a12.21,12.21,0,0,1-4.09,4.61,10.06,10.06,0,0,1-5.64,1.71l-74.55.46-.12-25.59,74.62-.46a9.48,9.48,0,0,1,5.58,1.77,13.07,13.07,0,0,1,4.14,4.74,13.68,13.68,0,0,1,1.57,6.34A13.51,13.51,0,0,1,260.61,254.43Z"/><path class="cls-1" d="M380.24,216.59a57,57,0,0,0-54.75.27A53.43,53.43,0,0,0,305.75,236a50.81,50.81,0,0,0,.26,52.58,53.51,53.51,0,0,0,19.93,19,56.71,56.71,0,0,0,54.75-.27,53.45,53.45,0,0,0,19.78-19.2,50.81,50.81,0,0,0-.26-52.58A53.43,53.43,0,0,0,380.24,216.59Zm-3,59.75a26.11,26.11,0,0,1-10,10,28.59,28.59,0,0,1-14,3.59,28.22,28.22,0,0,1-13.95-3.49,26.33,26.33,0,0,1-10.13-9.85,27.85,27.85,0,0,1-3.77-14.32A28.29,28.29,0,0,1,329,247.83a25.78,25.78,0,0,1,10-10,29.7,29.7,0,0,1,28-.14,26.11,26.11,0,0,1,10.1,9.85,29.77,29.77,0,0,1,.14,28.75Z"/><polygon class="cls-1" points="548.77 211.25 530.4 263.85 526.72 276.48 526.5 276.48 523.44 264.69 505.57 211.53 477.27 211.67 459.71 265.3 457.13 276.82 456.76 276.83 453.33 265.55 434.07 211.81 405.69 211.95 442.41 311.59 469.69 311.45 491.58 243.87 514.13 311.23 541.41 311.1 577.15 211.11 548.77 211.25"/></g><polygon id="by" class="cls-1" points="493.76 180.81 518.67 155.9 543.59 180.81 558.29 166.1 533.38 141.19 558.29 116.28 543.59 101.57 518.67 126.48 493.76 101.57 479.05 116.28 503.97 141.19 479.05 166.1 493.76 180.81"/><g id="lodi"><path class="cls-1" d="M99.23,17.64c-.44-1-.88-2-1.33-2.94A24.39,24.39,0,0,0,86.54,2.88,18,18,0,0,0,79.28.71C77.14.58,75,0,72.88,0,67.81.09,63.1,1.76,58.51,3.82a2.94,2.94,0,0,0-.5.31,48.19,48.19,0,0,0-8,7.3,26.29,26.29,0,0,0-5,13.24,71.7,71.7,0,0,0,.63,10.25,5.29,5.29,0,0,0,.31,1.43,69.76,69.76,0,0,0,5,10.58,9.55,9.55,0,0,0,2.18,2.35,23.53,23.53,0,0,0,3.44,2.23c1.89,1,3.87,1.9,5.75,2.93A9,9,0,0,0,66,55.52a59.57,59.57,0,0,0,14.31.09,15.18,15.18,0,0,0,3.09-.83c1.1-.41,2.13-1,3.21-1.44A18.26,18.26,0,0,0,94.84,47a29.44,29.44,0,0,0,3.58-6.71c1.58-4.46,2.81-9,2.42-13.18C100.82,22.57,100.4,20.26,99.23,17.64ZM83.63,38.48c-1.35,2.3-3.08,4-5.87,4.32-2,.21-4.08.44-6.12.55a7.39,7.39,0,0,1-4.13-1.3A17.31,17.31,0,0,1,62,36.47a8.53,8.53,0,0,1-1.1-2.37,24.91,24.91,0,0,1-.24-11.89,14,14,0,0,1,3.45-6.38c2.21-2.54,5.25-3.31,8.44-3.42a13.09,13.09,0,0,1,7.54,2.08c3.24,2.13,5.79,5,5.93,9.25,0,1,0,2,.06,2.93A19.34,19.34,0,0,1,83.63,38.48Z"/><path class="cls-1" d="M161.86,16.93A15,15,0,0,0,159,12.56a42.43,42.43,0,0,0-8.06-6.31,19.84,19.84,0,0,0-8.79-3c-3.58-.47-7.2-.7-10.81-.84-4.5-.18-9-.2-13.49-.23a10.52,10.52,0,0,0-4.34.77,12.14,12.14,0,0,0-.26,1.78c0,1.66.09,3.32.13,5,.12,6.06.22,12.12.36,18.18,0,1.56.07,3.14.25,4.69.58,4.87.33,9.77.43,14.66a39.56,39.56,0,0,0,.39,7.54,4.92,4.92,0,0,0,.88.4,36.35,36.35,0,0,0,8.45.85c2.24-.07,4.49-.07,6.74-.13.68,0,1.36-.12,2-.2,2.34-.27,4.67-.53,7-.81,5.06-.62,9.49-2.85,13.76-5.44,2.47-1.5,4.11-3.87,6-6A17.26,17.26,0,0,0,163,36.63a40,40,0,0,0,1.27-12.52,15.56,15.56,0,0,0-1-4C162.9,19.05,162.31,18,161.86,16.93Zm-17.32,21.7A21.07,21.07,0,0,1,131.47,43c-.87,0-1.73.06-3,.1-.07-3.4-.16-6.5-.19-9.61s0-6.44,0-9.66-.94-6.17-.43-9.46a18.38,18.38,0,0,1,1.94-.36,25.58,25.58,0,0,1,11.72,2,10.6,10.6,0,0,1,4,2.91,18.23,18.23,0,0,1,3.53,6C150.8,29.7,148.7,35.54,144.54,38.63Z"/><path class="cls-1" d="M38.81,46.35c-.62-2.28-.62-2.38-2.92-2.37-4.2,0-8.4.07-12.6.06a51.8,51.8,0,0,1-8.86-.31c0-1.46-.15-2.71-.14-4q.15-10.39.36-20.79c0-2.83.18-5.66.25-8.49,0-1.86.06-3.71,0-5.57a2.22,2.22,0,0,0-1.72-2.42A49,49,0,0,0,7.41,2c-1.07-.05-2.14.13-3.22.14C1.06,2.15.71,2.5.8,5.72s.21,6.44.25,9.66c0,2.93-.13,5.87,0,8.79C1.3,30,.7,35.87,1,41.73,1.11,45.14.76,48.56.66,52a9.25,9.25,0,0,0,.1,2A2.42,2.42,0,0,0,3,56a6.56,6.56,0,0,0,1.47-.05,66.05,66.05,0,0,1,10.24-.15c3.62.08,7.23.08,10.85.05,3.32,0,6.63-.13,10-.2a14.45,14.45,0,0,0,1.75-.08A1.79,1.79,0,0,0,39,53.88,18.73,18.73,0,0,0,38.81,46.35Z"/><path class="cls-1" d="M192.47,3.88c-.16-1.41-.53-1.83-2-2A14.13,14.13,0,0,0,189,1.82c-2.05,0-4.1-.09-6.15-.05-4.49.09-4.74-.44-4.61,4.71.07,2.63.42,5.25.48,7.88.13,6.24.14,12.49.23,18.73,0,2.44.19,4.88.19,7.32,0,4.19-.07,8.39-.12,12.58a2.89,2.89,0,0,0,1,2.6c4.93.74,9.89.5,12.85-.7a19.08,19.08,0,0,0,.57-3.91c-.07-5.95,0-11.91,0-17.86,0-5.08,0-10.15-.11-15.22C193.23,13.22,193,8.54,192.47,3.88Z"/></g></svg>