<svg xmlns="http://www.w3.org/2000/svg" viewBox="0 0 17.85 17.85"><path fill="currentColor" d="M17.79,12.6a5.32,5.32,0,0,1-1.44,3.74,5.25,5.25,0,0,1-3.74,1.44c-1.48.09-5.89.09-7.37,0A5.29,5.29,0,0,1,1.5,16.34,5.32,5.32,0,0,1,.06,12.6C0,11.13,0,6.71.06,5.24A5.32,5.32,0,0,1,1.5,1.5,5.35,5.35,0,0,1,5.24.06C6.72,0,11.13,0,12.61.06A5.33,5.33,0,0,1,16.35,1.5a5.33,5.33,0,0,1,1.44,3.74C17.87,6.72,17.87,11.13,17.79,12.6ZM16.24,8.92c0-1.29.11-4.08-.36-5.26A3,3,0,0,0,14.19,2c-1.17-.47-4-.36-5.26-.36S4.84,1.5,3.67,2A3,3,0,0,0,2,3.66c-.46,1.17-.36,4-.36,5.26S1.5,13,2,14.18a3,3,0,0,0,1.7,1.7c1.17.46,4,.36,5.26.36s4.08.11,5.26-.36a3,3,0,0,0,1.69-1.7C16.35,13,16.24,10.22,16.24,8.92Zm-2.74,0A4.58,4.58,0,1,1,8.93,4.35,4.56,4.56,0,0,1,13.5,8.92Zm-1.6,0a3,3,0,1,0-3,3A3,3,0,0,0,11.9,8.92Zm1.79-3.69a1.07,1.07,0,1,1,1.07-1.07A1.07,1.07,0,0,1,13.69,5.23Z" transform="translate(0 0)"/></svg>