<svg xmlns="http://www.w3.org/2000/svg" viewBox="0 0 17.44 17.44"><path fill="currentColor" d="M14.38.2a3.15,3.15,0,0,1,2.31,1,3.15,3.15,0,0,1,1,2.31v10.9a3.26,3.26,0,0,1-3.27,3.27H6.14a7.62,7.62,0,0,0,1.23-2.38q.11-.39.6-2.37a2,2,0,0,0,.84.76,2.65,2.65,0,0,0,1.27.31,4.06,4.06,0,0,0,3.36-1.67,6.7,6.7,0,0,0,1.3-4.24,4.44,4.44,0,0,0-.4-1.85,5,5,0,0,0-1.09-1.57,5.3,5.3,0,0,0-1.74-1.11,6,6,0,0,0-2.23-.41,7.47,7.47,0,0,0-2.21.32,5.67,5.67,0,0,0-1.74.87A6.5,6.5,0,0,0,4.11,5.54,5.2,5.2,0,0,0,3.36,7a4.63,4.63,0,0,0-.25,1.5,4.45,4.45,0,0,0,.45,2.05A2.59,2.59,0,0,0,4.88,11.8a.42.42,0,0,0,.27,0,.32.32,0,0,0,.16-.22l.17-.69a.48.48,0,0,0-.12-.48,2.62,2.62,0,0,1-.57-1.7A4,4,0,0,1,6,5.8,4.06,4.06,0,0,1,9,4.59a3.6,3.6,0,0,1,2.64.92,3.16,3.16,0,0,1,1,2.38,6.48,6.48,0,0,1-.77,3.25,2.26,2.26,0,0,1-2,1.34,1.38,1.38,0,0,1-1.1-.5,1.25,1.25,0,0,1-.26-1.17q.09-.39.3-1.05c.14-.45.25-.83.33-1.16a3.26,3.26,0,0,0,.13-.85A1.39,1.39,0,0,0,9,6.83a1,1,0,0,0-.86-.37A1.44,1.44,0,0,0,7,7.1a2.58,2.58,0,0,0-.48,1.58,3,3,0,0,0,.28,1.38l-1.12,4.7a8.59,8.59,0,0,0-.08,2.88H3.47a3.18,3.18,0,0,1-2.31-.95,3.17,3.17,0,0,1-1-2.32V3.47a3.15,3.15,0,0,1,1-2.31A3.15,3.15,0,0,1,3.47.2Z" transform="translate(-0.2 -0.2)"/></svg>