<svg xmlns="http://www.w3.org/2000/svg" viewBox="0 0 17.44 17.44"><path fill="currentColor" d="M17.65,3.47v10.9a3.26,3.26,0,0,1-3.27,3.27H3.47a3.18,3.18,0,0,1-2.31-.95,3.17,3.17,0,0,1-1-2.32V3.47a3.15,3.15,0,0,1,1-2.31A3.15,3.15,0,0,1,3.47.2H14.38a3.15,3.15,0,0,1,2.31,1A3.15,3.15,0,0,1,17.65,3.47Zm-2.91,2.2a5,5,0,0,1-1.37.39,2.3,2.3,0,0,0,1.05-1.33,4.72,4.72,0,0,1-1.52.58,2.26,2.26,0,0,0-1.74-.75A2.39,2.39,0,0,0,8.78,7a2.61,2.61,0,0,0,.05.54,6.66,6.66,0,0,1-2.74-.74A6.45,6.45,0,0,1,3.91,5,2.37,2.37,0,0,0,3.58,6.2a2.23,2.23,0,0,0,1,2,2.71,2.71,0,0,1-1.14-.29v0A2.26,2.26,0,0,0,4,9.43a2.38,2.38,0,0,0,1.4.82,2.22,2.22,0,0,1-.58.09,2.93,2.93,0,0,1-.44,0,2.48,2.48,0,0,0,.84,1.18A2.31,2.31,0,0,0,6.64,12a4.71,4.71,0,0,1-3,1,3.48,3.48,0,0,1-.57,0A6.71,6.71,0,0,0,6.77,14a6.87,6.87,0,0,0,2.38-.4,6.21,6.21,0,0,0,1.91-1.08A7,7,0,0,0,12.43,11a7,7,0,0,0,.85-1.84,6.64,6.64,0,0,0,.28-1.91c0-.14,0-.24,0-.31A4.68,4.68,0,0,0,14.74,5.67Z" transform="translate(-0.2 -0.2)"/></svg>