<svg id="ba776c1d-3fb4-44fa-abdd-f890cc6980e1" data-name="Layer 1" xmlns="http://www.w3.org/2000/svg" viewBox="0 0 260.44 122.58"><defs><style>.aa5ac9bc-1175-45f3-a5f7-01c240924beb{fill:#272626}</style></defs><path class="aa5ac9bc-1175-45f3-a5f7-01c240924beb" d="M134.8 7.12l-3 3 2.36 2.36 3.06-3.06A20.93 20.93 0 01152 3.35V0a24.36 24.36 0 00-17.2 7.12M123.92 41.63l3.08-3.09-2.37-2.36-3.08 3.08a21 21 0 01-14.86 6.13v3.35a24.33 24.33 0 0017.22-7.11M137.18 39.26l-22.7-22.7a11 11 0 00-7.77-3.2v3.34a7.62 7.62 0 015.41 2.23l22.67 22.68A24.33 24.33 0 00152 48.74v-3.35a20.93 20.93 0 01-14.86-6.13M144.25 16.58l-3.06 3.05 2.35 2.37 3-3a7.67 7.67 0 015.46-2.3v-3.34a11 11 0 00-7.79 3.22M121.56 9.48l22.7 22.7a11 11 0 007.78 3.2V32a7.57 7.57 0 01-5.41-2.22L124 7.14A24.34 24.34 0 00106.7 0v3.35a21 21 0 0114.86 6.13M114.47 32.18l3.08-3.09-2.36-2.36-3.09 3.09a7.57 7.57 0 01-5.4 2.18v3.35a11 11 0 007.77-3.2"/><path class="aa5ac9bc-1175-45f3-a5f7-01c240924beb" d="M116.84 14.2l22.7 22.7A17.62 17.62 0 00152 42.06v-3.35a14.26 14.26 0 01-10.14-4.17l-22.7-22.7a17.66 17.66 0 00-12.5-5.16V10a14.31 14.31 0 0110.14 4.17zM119.2 36.9l3.08-3.08-2.36-2.36-3.08 3.08a14.31 14.31 0 01-10.14 4.17v3.35a17.67 17.67 0 0012.5-5.16M139.52 11.85l-3 3.05 2.36 2.36 3.05-3.05A14.26 14.26 0 01152 10V6.68a17.63 17.63 0 00-12.52 5.17M0 73.55h4.64v16.88h10.51v4.21H0V73.55zM30 84.16v-.06a10.91 10.91 0 0111.24-10.91A10.8 10.8 0 0152.41 84v.06A10.9 10.9 0 0141.18 95 10.81 10.81 0 0130 84.16m17.56 0v-.06a6.4 6.4 0 00-6.38-6.63A6.31 6.31 0 0034.85 84v.06a6.41 6.41 0 006.39 6.63 6.31 6.31 0 006.32-6.57M69.05 73.55h8.22c6.63 0 11.21 4.55 11.21 10.49v.06c0 5.93-4.58 10.54-11.21 10.54h-8.22zm8.22 16.91a6 6 0 006.36-6.3v-.06a6.06 6.06 0 00-6.36-6.36h-3.58v12.72zM105.6 73.55h4.64v21.09h-4.64zM140.46 73.55h4.97l4.37 14.28 4.73-14.34h3.97l4.74 14.34 4.36-14.28h4.86l-7.21 21.25h-4.03L156.46 81l-4.77 13.8h-4.03l-7.2-21.25zM187.72 73.55h4.64v21.09h-4.64zM209.01 73.55h4.28l9.88 12.99V73.55h4.58v21.09h-3.95l-10.21-13.4v13.4h-4.58V73.55zM244.38 73.55h15.91v4.13h-11.3v4.28h9.94v4.13h-9.94v4.43h11.45v4.12h-16.06V73.55zM49.62 117.09a5.41 5.41 0 015.56-5.51 5.51 5.51 0 014.2 1.64l-1.49 1.72a4 4 0 00-2.73-1.2 3.15 3.15 0 00-3.09 3.26 3.16 3.16 0 003.09 3.35 3.83 3.83 0 002.8-1.25l1.5 1.51a5.47 5.47 0 01-4.37 1.91 5.39 5.39 0 01-5.47-5.43zM71.69 111.65h2.17l4.57 10.74H76L75 120h-4.51l-1 2.39h-2.4zm2.47 6.28l-1.41-3.46-1.42 3.46zM86.78 111.73h2.35v8.53h5.31v2.13h-7.66zM103 111.73h2.35v10.66H103zM114.74 111.73h8.12v2.13h-5.77v2.27h5.08v2.13h-5.08v4.13h-2.35zM131 117.09a5.67 5.67 0 0111.33 0 5.67 5.67 0 01-11.33 0zm8.88 0a3.24 3.24 0 00-3.23-3.35 3.19 3.19 0 00-3.2 3.32 3.24 3.24 0 003.23 3.35 3.19 3.19 0 003.17-3.32zM151.1 111.73h4.9a4.25 4.25 0 013.11 1.08 3.37 3.37 0 01.91 2.44 3.31 3.31 0 01-2.28 3.3l2.6 3.81h-2.74l-2.31-3.36h-1.85v3.41h-2.34zm4.72 5.18c1.14 0 1.8-.61 1.8-1.51 0-1-.7-1.52-1.85-1.52h-2.33v3.06zM168.82 111.73H171l5 6.56v-6.56h2.31v10.66h-2l-5.17-6.78v6.78h-2.31zM187.65 111.73H190v10.66h-2.35zM203 111.65h2.16l4.57 10.74h-2.45l-1-2.39h-4.51l-1 2.39h-2.39zm2.46 6.28l-1.41-3.46-1.42 3.46z"/></svg>