<svg id="af5522ed-67b7-46b3-a458-83fb29c8ef34" data-name="Layer 1" xmlns="http://www.w3.org/2000/svg" viewBox="0 0 502.82 145.19"><defs><style>.b348a135-f45a-47f8-b734-777f7af854a8{fill:#21543a}</style></defs><path class="b348a135-f45a-47f8-b734-777f7af854a8" d="M500.71 39.24l.07 13.21h-3.89v-8.84h-4.3v7.59h-3.65v-7.58h-6.9v-4.36zM491.05 64.31a2.24 2.24 0 001.16-.48 2.71 2.71 0 00.84-1.07 3.23 3.23 0 00.29-1.42 3.42 3.42 0 00-.42-1.67 3.07 3.07 0 00-1.35-1.23 5.15 5.15 0 00-2.33-.45 5 5 0 00-2.16.42 2.88 2.88 0 00-1.34 1.15 3.18 3.18 0 00-.45 1.72 3.78 3.78 0 00.19 1.23 2.3 2.3 0 00.51.84 2 2 0 00.79.47v4.55a6.29 6.29 0 01-2.5-1.26 7.35 7.35 0 01-1.91-2.43 7.49 7.49 0 01-.75-3.31 7.59 7.59 0 011-3.89 7.18 7.18 0 012.75-2.69 8.08 8.08 0 017.6 0 7.3 7.3 0 013.82 6.55 7.18 7.18 0 01-1 3.84 6.88 6.88 0 01-2.71 2.59 7.88 7.88 0 01-3.74.93h-1.18l-.06-11.31 2.88.21zM481.7 77.19a7.71 7.71 0 01.72-3.5 5 5 0 011.89-2.11 4.86 4.86 0 012.51-.71v4.07a2 2 0 00-.94.29 1.72 1.72 0 00-.62.75 2.8 2.8 0 00-.26 1.22 2.94 2.94 0 00.17 1.08 1.21 1.21 0 00.45.59 1.16 1.16 0 00.68.19.87.87 0 00.67-.27 1.82 1.82 0 00.4-.79 10.15 10.15 0 00.27-1.41 9.37 9.37 0 01.69-2.69 4.39 4.39 0 011.48-1.85 4 4 0 012.4-.69 4.44 4.44 0 012.48.65 4.12 4.12 0 011.59 1.92 8.47 8.47 0 010 6.16 4.93 4.93 0 01-1.7 2.12 4.3 4.3 0 01-2.53.77v-4.14a1.63 1.63 0 00.72-.25 1.29 1.29 0 00.49-.6 2.44 2.44 0 00.17-1 2 2 0 00-.15-.84 1 1 0 00-.94-.65 1 1 0 00-.63.19 1.37 1.37 0 00-.37.69 13.7 13.7 0 00-.32 1.71v.29l-.06.29a9.88 9.88 0 01-.76 2.59 3.72 3.72 0 01-1.35 1.57 4.16 4.16 0 01-2.23.55 4.38 4.38 0 01-2.71-.8 4.81 4.81 0 01-1.64-2.21 9 9 0 01-.57-3.18zM482.25 92.63a6.52 6.52 0 01.39-2.39 3.64 3.64 0 011.62-1.82 6.81 6.81 0 013.53-.76h5.09v-2.77h3.61v2.74h4.12v4.24h-4.14v3.85h-3.61v-3.86h-5.28a2.28 2.28 0 00-1.08.22 1.36 1.36 0 00-.61.57 1.78 1.78 0 00-.18.83v2.24h-3.5zM496.54 98.77v4.24l-14.27.07v-4.24zm1.69 2.1a2.81 2.81 0 01.3-1.33 2.09 2.09 0 01.82-.87 2.28 2.28 0 011.16-.3 2.2 2.2 0 011.16.29 2.09 2.09 0 01.83.86 2.74 2.74 0 01.32 1.34 2.92 2.92 0 01-.3 1.37 2.25 2.25 0 01-.83.87 2.41 2.41 0 01-2.33 0 2.06 2.06 0 01-.82-.88 3 3 0 01-.31-1.35zM496.58 105.46v4.49l-7.27 2.71-1.68.41 1.68.36 7.3 2.64v4.51L482.36 115v-3.9zM482 128.31a5.85 5.85 0 011-3.37 6.75 6.75 0 012.75-2.36 9 9 0 017.63 0 7.14 7.14 0 012.77 2.34 5.76 5.76 0 011 3.33 6.43 6.43 0 01-.26 1.95 5.15 5.15 0 01-.76 1.6 4.05 4.05 0 01-1.24 1.13h1.83v4l-14.26.07v-4h1.8a4.07 4.07 0 01-1.23-1.11 5.07 5.07 0 01-.78-1.58 6.34 6.34 0 01-.25-2zm3.91 1a3.35 3.35 0 00.49 1.74 3.42 3.42 0 001.35 1.23 4.06 4.06 0 001.87.44 3.89 3.89 0 001.86-.47 3.6 3.6 0 001.33-1.24 3.18 3.18 0 00.48-1.73 3.36 3.36 0 00-.45-1.71 3.15 3.15 0 00-1.29-1.24 4 4 0 00-2-.44 4.05 4.05 0 00-2 .47 3.14 3.14 0 00-1.26 1.24 3.58 3.58 0 00-.42 1.73zM501.89 140.86v4.24l-19.4.09v-4.24zM459.77 38.44l5.23 5.73c.82.89 1.51 1.59 2.07 2.11a8.1 8.1 0 001.62 1.19 3.26 3.26 0 001.54.41 2.42 2.42 0 001.17-.3 2 2 0 00.81-.84 2.55 2.55 0 00.29-1.26 2.85 2.85 0 00-.35-1.42 2.41 2.41 0 00-1.18-1 5.38 5.38 0 00-2.24-.38v-4.31a10.57 10.57 0 013.75.66 6.32 6.32 0 012.88 2.24 6.73 6.73 0 011.15 4.06 7.64 7.64 0 01-.82 3.73 5.92 5.92 0 01-2.26 2.36 6.48 6.48 0 01-3.16.81 6.41 6.41 0 01-2.22-.39 7.61 7.61 0 01-2-1.14 15.55 15.55 0 01-2-1.89L460.7 45l.45 1.86v5.88h-3.74l-.07-14.25zM457 63.41a7.72 7.72 0 011.28-4.57 7.94 7.94 0 013.51-2.78 12.91 12.91 0 014.92-.93 12.7 12.7 0 015 .93 8.05 8.05 0 013.56 2.79 7.54 7.54 0 011.33 4.45 7.74 7.74 0 01-1.27 4.7 7.65 7.65 0 01-3.55 2.72 13.69 13.69 0 01-4.9.87 13 13 0 01-5-.89 7.94 7.94 0 01-3.52-2.7 7.7 7.7 0 01-1.36-4.59zm4 0a3.15 3.15 0 00.73 2.07 4.61 4.61 0 002 1.32 9 9 0 003.08.45 9.19 9.19 0 003.06-.47 4.48 4.48 0 002-1.36 3.19 3.19 0 00.71-2.09 3.12 3.12 0 00-.73-2 4.52 4.52 0 00-1.97-1.33 10.06 10.06 0 00-6.14 0 4.36 4.36 0 00-2 1.36 3.18 3.18 0 00-.74 2.03zM459.94 74l5.25 5.73c.81.89 1.5 1.59 2.07 2.12a8.52 8.52 0 001.62 1.15 3.24 3.24 0 001.53.4 2.32 2.32 0 001.17-.3 2 2 0 00.82-.83 2.72 2.72 0 00.29-1.26 3 3 0 00-.35-1.43 2.6 2.6 0 00-1.19-1 5.36 5.36 0 00-2.24-.37V73.9a10.14 10.14 0 013.75.66 6.35 6.35 0 012.89 2.24 6.77 6.77 0 011.15 4.05 7.61 7.61 0 01-.83 3.73 5.79 5.79 0 01-2.28 2.42 6.38 6.38 0 01-3.16.82 6.31 6.31 0 01-2.21-.39 7.78 7.78 0 01-2-1.15 14.29 14.29 0 01-2-1.89l-3.35-3.87.45 1.86v5.88h-3.75L457.53 74zM457.2 99a7.66 7.66 0 011.29-4.58A7.84 7.84 0 01462 91.6a12.72 12.72 0 014.92-.93 12.88 12.88 0 015 .92 8.17 8.17 0 013.57 2.79 7.64 7.64 0 011.33 4.46 7.4 7.4 0 01-4.88 7.42 13.73 13.73 0 01-4.9.87 13 13 0 01-5-.89 7.85 7.85 0 01-3.56-2.75A7.67 7.67 0 01457.2 99zm4 0a3.12 3.12 0 00.72 2.06 4.52 4.52 0 002 1.33 9.52 9.52 0 003.08.45 9.38 9.38 0 003-.48 4.46 4.46 0 002-1.35 3.16 3.16 0 00.71-2.1 3 3 0 00-.73-2 4.56 4.56 0 00-2.05-1.34A9.06 9.06 0 00467 95a9.45 9.45 0 00-3.06.48 4.49 4.49 0 00-2 1.36 3.15 3.15 0 00-.74 2.09zM41.47 64.31a13.6 13.6 0 002.6-4.46 15.71 15.71 0 00.93-5.41 14.74 14.74 0 00-2.06-7.66 14.27 14.27 0 00-5.6-5.32 16.7 16.7 0 00-8.1-1.88l-29 .14L.36 82h11.4l-.06-12.54 14.6-.07 7.08 12.42 13-.06-9-14.28a14.15 14.15 0 004.09-3.16zm-8.55-7.09a5.2 5.2 0 01-1.73 2 4.31 4.31 0 01-2.39.73L11.65 60l-.05-10.86 17.18-.08a3.94 3.94 0 012.36.75 5.44 5.44 0 011.75 2 5.89 5.89 0 010 5.4zM78.65 83.15a42.11 42.11 0 0015.72-2.73 22.12 22.12 0 0010.08-7.71 20.24 20.24 0 003.45-11.92 20 20 0 00-3.57-11.86 21.89 21.89 0 00-10.15-7.58 42.28 42.28 0 00-15.75-2.57 42.32 42.32 0 00-15.72 2.72 22 22 0 00-10.09 7.68 20 20 0 00-3.47 11.9A20.13 20.13 0 0052.73 73a22.05 22.05 0 0010.17 7.57 42.07 42.07 0 0015.75 2.58zM60.52 61.06a9.74 9.74 0 012.13-6.34 13.3 13.3 0 016.19-4.08 29.59 29.59 0 019.64-1.45 29.65 29.65 0 019.66 1.35 13.39 13.39 0 016.23 4 10.33 10.33 0 01.06 12.64 13.39 13.39 0 01-6.19 4.09 29.88 29.88 0 01-9.64 1.44 29.65 29.65 0 01-9.66-1.35 13.46 13.46 0 01-6.23-4 9.7 9.7 0 01-2.19-6.3zM149.46 52.65l12.85 29.14 11-.05 18.62-42.38-12.37.06-9.68 21.71-1.86 5.94h-.13l-2.23-5.58-10.27-21.91-11.99.05-10.11 22.14-2.06 5.79h-.15l-1.83-5.67-10.05-22.17-12.34.06 19.04 42.19 10.97-.05 12.59-29.27zM317.63 64.17a13.64 13.64 0 002.57-4.44 15.61 15.61 0 00.88-5.4 15 15 0 00-2-7.66 14.18 14.18 0 00-5.59-5.32 16.7 16.7 0 00-8.1-1.88l-43.45.25.17 42.28h11.4l-.06-12.46 29-.18 7.08 12.42 13-.06-9-14.31a13.79 13.79 0 004.1-3.24zm-8.53-7.06a5.2 5.2 0 01-1.73 2 4.31 4.31 0 01-2.39.73L273.4 60V49.16L305 49a4 4 0 012.36.74 5.55 5.55 0 011.75 2 5.89 5.89 0 010 5.4zM359.78 40.8a24.12 24.12 0 00-23.19.12 22.72 22.72 0 00-8.37 8.08 21.52 21.52 0 00.11 22.27 22.69 22.69 0 008.45 8 24 24 0 0023.22-.05 22.78 22.78 0 008.38-8.13 21.54 21.54 0 00-.11-22.28 22.69 22.69 0 00-8.49-8.01zm-1.26 25.32a11.11 11.11 0 01-4.23 4.21 12.1 12.1 0 01-6 1.52 11.9 11.9 0 01-5.91-1.48 11.16 11.16 0 01-4.29-4.17 12.59 12.59 0 01-.02-12.2 10.86 10.86 0 014.23-4.22 12.59 12.59 0 0111.88-.06 11 11 0 014.28 4.18 12.6 12.6 0 01.06 12.18zM431.17 39.47l-7.78 22.28-1.56 5.35h-.09l-1.3-4.99-7.56-22.52-12 .06-7.44 22.71-1.09 4.89h-.16l-1.45-4.78-8.16-22.76-12.02.06 15.56 42.2 11.55-.05 9.28-28.63 9.55 28.53 11.56-.05 15.14-42.36-12.03.06zM209.01 77.11l10.55-10.55 10.56 10.55 6.23-6.22-10.56-10.56 10.56-10.55-6.23-6.23-10.56 10.55-10.55-10.55-6.23 6.23 10.55 10.55-10.55 10.56 6.23 6.22zM41.74 7.47c-.18-.41-.37-.83-.56-1.24a10.28 10.28 0 00-4.81-5A7.66 7.66 0 0033.3.3c-.91 0-1.81-.32-2.71-.3a15.62 15.62 0 00-6.09 1.62 1.2 1.2 0 00-.21.13 20.27 20.27 0 00-3.39 3.09 11.23 11.23 0 00-2.13 5.61 30.11 30.11 0 00.23 4.34 2.08 2.08 0 00.13.6 30.14 30.14 0 002.13 4.48 4 4 0 00.93 1 9.71 9.71 0 001.45.94c.8.44 1.64.81 2.44 1.24a3.78 3.78 0 001.53.46 25.08 25.08 0 006.06 0A7.22 7.22 0 0035 23.2c.47-.18.91-.42 1.36-.62a7.65 7.65 0 003.5-2.67 12.19 12.19 0 001.52-2.85 13.58 13.58 0 001-5.58 8.86 8.86 0 00-.64-4.01zm-6.6 8.83a3.23 3.23 0 01-2.49 1.82c-.86.09-1.72.19-2.59.24a3.11 3.11 0 01-1.75-.56A7.17 7.17 0 0126 15.44a3.39 3.39 0 01-.47-1 10.57 10.57 0 01-.1-5 6 6 0 011.45-2.74 4.73 4.73 0 013.58-1.45 5.54 5.54 0 013.19.89 4.83 4.83 0 012.51 3.91v1.24a8.28 8.28 0 01-1.02 5.01zM68.26 7.17A6.23 6.23 0 0067 5.32a18.83 18.83 0 00-3.41-2.68 8.52 8.52 0 00-3.73-1.28c-1.51-.19-3-.29-4.57-.35-1.9-.08-3.81-.09-5.71-.1a4.57 4.57 0 00-1.84.33 5.44 5.44 0 00-.11.75c0 .7 0 1.4.05 2.11q.07 3.84.16 7.7c0 .66 0 1.33.1 2 .25 2.07.14 4.14.19 6.21a16.14 16.14 0 00.16 3.19 1.91 1.91 0 00.37.17 15.38 15.38 0 003.58.36c.95 0 1.9 0 2.85-.05a8.55 8.55 0 00.87-.09l3-.34a14.83 14.83 0 005.83-2.3 11.34 11.34 0 002.52-2.56 7.25 7.25 0 001.45-2.86 16.61 16.61 0 00.53-5.3 6.27 6.27 0 00-.42-1.68c-.17-.48-.41-.92-.61-1.38zm-7.33 9.19a8.89 8.89 0 01-5.54 1.83h-1.26c0-1.43-.06-2.75-.07-4.07s0-2.72 0-4.08a24.13 24.13 0 01-.18-4 7.4 7.4 0 01.82-.15 10.7 10.7 0 015 .83A4.4 4.4 0 0161.35 8a7.66 7.66 0 011.5 2.55 5.32 5.32 0 01-1.92 5.81zM16.16 19.63c-.26-1-.26-1-1.24-1H9.59a21.91 21.91 0 01-3.75-.13c0-.62-.07-1.15-.06-1.68 0-2.94.09-5.87.15-8.81C6 6.83 6 5.64 6 4.44V2.08a.94.94 0 00-.73-1A22.46 22.46 0 002.86.84C2.41.82 2 .9 1.5.9.17.91 0 1.06.06 2.42s.09 2.73.11 4.09-.06 2.49 0 3.72c.11 2.48-.15 5 0 7.44C.19 19.11.05 20.56 0 22a3.52 3.52 0 000 .86 1 1 0 001 .84 2.59 2.59 0 00.62 0A28.46 28.46 0 016 23.62h4.6c1.53 0 2.81-.06 4.21-.09h.74a.77.77 0 00.74-.71 8 8 0 00-.13-3.19zM81.22 1.64C81.16 1 81 .87 80.38.8h-3.23c-1.9 0-2-.19-2 2 0 1.12.18 2.23.2 3.34.06 2.64.06 5.29.1 7.93 0 1 .08 2.07.08 3.1v5.33a1.22 1.22 0 00.44 1.1 11.47 11.47 0 005.44-.3 7.81 7.81 0 00.24-1.65v-7.57-6.44c-.1-2.04-.21-4.02-.43-6z"/></svg>