<svg id="Layer_1" data-name="Layer 1" xmlns="http://www.w3.org/2000/svg" viewBox="0 0 577.15 481"><defs><style>.cls-1{fill:#21543a}</style></defs><path class="cls-1" d="M103.12 230.9l.15 31.17h-9.16L94 241.24H83.85L84 259.2h-8.61l-.09-17.91-16.3.12v-10.3zM80.3 290.07a5.48 5.48 0 002.76-1.13 6.55 6.55 0 002-2.53 8.29 8.29 0 00-.31-7.3 7.18 7.18 0 00-3.17-2.89 12 12 0 00-5.58-1.08 12.23 12.23 0 00-5.1 1 6.89 6.89 0 00-3.17 2.73 7.56 7.56 0 00-1 4.06 8.39 8.39 0 00.45 2.89 5 5 0 001.21 2 5.08 5.08 0 001.84 1.13l.06 10.72a14.58 14.58 0 01-5.9-3 17.1 17.1 0 01-4.52-5.73 17.55 17.55 0 01-1.76-7.81 17.74 17.74 0 012.35-9.13 16.85 16.85 0 016.54-6.4 18.91 18.91 0 0118-.09 17.07 17.07 0 016.55 6.27 17.55 17.55 0 012.37 9.22 17.1 17.1 0 01-2.35 9 16.38 16.38 0 01-6.39 6.11 18.56 18.56 0 01-8.82 2.19h-1.38l-1.42-.11-.13-26.68 6.8.48zM58.25 320.48a18 18 0 011.69-8.27 11.8 11.8 0 014.46-5 11.52 11.52 0 015.94-1.66v9.6a4.68 4.68 0 00-2.21.69 3.85 3.85 0 00-1.47 1.76 6.93 6.93 0 00-.52 2.9 7.09 7.09 0 00.4 2.53 2.94 2.94 0 001.07 1.41 2.87 2.87 0 001.61.43 2.14 2.14 0 001.57-.63 4.39 4.39 0 001-1.85 26.27 26.27 0 00.63-3.36A22.1 22.1 0 0174 312.7a10.31 10.31 0 013.47-4.36 9.58 9.58 0 015.68-1.63 10.61 10.61 0 015.85 1.53 9.9 9.9 0 013.75 4.53 20 20 0 01-.05 14.54 11.69 11.69 0 01-4 5 10.3 10.3 0 01-6 1.82v-9.78a3.91 3.91 0 001.69-.58 3.19 3.19 0 001.16-1.42A5.77 5.77 0 0086 320a5.18 5.18 0 00-.35-2 2.54 2.54 0 00-.92-1.14 2.34 2.34 0 00-1.32-.37 2.24 2.24 0 00-1.49.43 3.3 3.3 0 00-.87 1.64 35 35 0 00-.76 4q0 .33-.09.69c0 .23-.09.46-.13.68a23.41 23.41 0 01-1.79 6.12 8.74 8.74 0 01-3.2 3.7 9.78 9.78 0 01-5.26 1.31 10.43 10.43 0 01-6.39-1.88 11.48 11.48 0 01-3.87-5.18 21 21 0 01-1.31-7.52zM59.54 356.91a16 16 0 01.91-5.62 8.61 8.61 0 013.84-4.29q2.89-1.77 8.32-1.8l12-.06v-6.47h8.52v6.47l9.72-.05.11 10h-9.78v9.1h-8.51v-9.1l-12.47.06a5.69 5.69 0 00-2.55.52 3.22 3.22 0 00-1.43 1.34 4.18 4.18 0 00-.43 2v5.3h-8.26zM93.28 371.41v10.01l-33.67.17v-10zm4 5a6.55 6.55 0 01.7-3.14 4.9 4.9 0 011.94-2.06 5.64 5.64 0 015.46 0 5 5 0 012 2 6.59 6.59 0 01.75 3.16 6.8 6.8 0 01-.72 3.24 5.07 5.07 0 01-2 2.06 5.39 5.39 0 01-2.72.71 5.5 5.5 0 01-2.77-.68 4.84 4.84 0 01-1.92-2.09 7.1 7.1 0 01-.73-3.24zM93.36 387.21v10.6l-17.11 6.39-4 1 4 .86 17.22 6.22v10.66L59.8 409.81v-9.2zM58.85 441.15a13.71 13.71 0 012.37-8 16.27 16.27 0 016.48-5.58 21.23 21.23 0 0118-.07 16.45 16.45 0 016.55 5.5 13.66 13.66 0 012.45 7.87 16.56 16.56 0 01-.61 4.6 12.51 12.51 0 01-1.82 3.78 9.71 9.71 0 01-2.91 2.75h4.32v9.49l-33.67.17v-9.52h4.25a9.75 9.75 0 01-2.9-2.61 12.06 12.06 0 01-1.85-3.73 15.83 15.83 0 01-.66-4.65zm9.24 2.39a7.84 7.84 0 001.16 4.13 8 8 0 003.17 2.89 9.41 9.41 0 004.42 1 9.15 9.15 0 004.39-1.09 8.35 8.35 0 003.13-2.94 7.48 7.48 0 001.15-4.07 8.1 8.1 0 00-1.07-4.06 7.68 7.68 0 00-3-2.91 9.49 9.49 0 00-4.64-1 9.63 9.63 0 00-4.7 1.11 7.4 7.4 0 00-3 2.94 8.15 8.15 0 00-1.01 4zM105.9 470.76v10l-45.75.24v-10zM6.47 229l12.39 13.52c1.92 2.1 3.54 3.76 4.88 5a19.59 19.59 0 003.82 2.81 7.51 7.51 0 003.62 1 5.45 5.45 0 002.76-.7 4.76 4.76 0 001.93-2 6.1 6.1 0 00.68-3 6.75 6.75 0 00-.83-3.36 5.8 5.8 0 00-2.79-2.34 12.73 12.73 0 00-5.28-.88v-10.18a24.25 24.25 0 018.85 1.57 14.87 14.87 0 016.81 5.28 16 16 0 012.69 9.56 18.2 18.2 0 01-2 8.81 13.75 13.75 0 01-5.33 5.56 15.36 15.36 0 01-12.69 1 17.81 17.81 0 01-4.77-2.65 33.49 33.49 0 01-4.64-4.46l-7.91-9.13 1.06 4.39.07 13.88H.95L.78 229zM0 288a18.25 18.25 0 013-10.81 18.69 18.69 0 018.28-6.54 30.21 30.21 0 0111.61-2.2 30.32 30.32 0 0111.87 2.18 19.18 19.18 0 018.42 6.59 17.86 17.86 0 013.14 10.52 18.36 18.36 0 01-3.13 11.11 18.13 18.13 0 01-8.39 6.41 32.39 32.39 0 01-11.56 2.06 30.68 30.68 0 01-11.74-2.1 18.67 18.67 0 01-8.39-6.49A18.18 18.18 0 010 288zm9.43-.05a7.43 7.43 0 001.71 4.87A10.71 10.71 0 0016 295.9a21.88 21.88 0 007.22 1.1 22 22 0 007.21-1.13 10.5 10.5 0 004.81-3.19 7.54 7.54 0 001.68-4.95 7.22 7.22 0 00-1.73-4.73 10.86 10.86 0 00-4.84-3.16 21.49 21.49 0 00-7.28-1.09 21.34 21.34 0 00-7.23 1.14 10.5 10.5 0 00-4.77 3.21 7.53 7.53 0 00-1.64 4.8zM6.88 312.88l12.39 13.52c1.92 2.1 3.54 3.76 4.88 5a19.9 19.9 0 003.85 2.8 7.54 7.54 0 003.63.95 5.45 5.45 0 002.76-.7 4.74 4.74 0 001.92-2 6.1 6.1 0 00.69-3 6.85 6.85 0 00-.83-3.36 5.9 5.9 0 00-2.79-2.34 12.81 12.81 0 00-5.29-.88v-10.18a24.25 24.25 0 018.85 1.57 15 15 0 016.82 5.28 16 16 0 012.71 9.57 18 18 0 01-2 8.81 13.69 13.69 0 01-5.33 5.56 15.36 15.36 0 01-12.69 1 17.81 17.81 0 01-4.79-2.71 34.06 34.06 0 01-4.66-4.4l-7.91-9.13 1.06 4.39.07 13.88H1.38l-.18-33.6zM.42 371.83a18.11 18.11 0 013-10.81 18.61 18.61 0 018.27-6.54 30.21 30.21 0 0111.61-2.2 30.29 30.29 0 0111.87 2.18 19.13 19.13 0 018.42 6.59 17.86 17.86 0 013.14 10.52 18.36 18.36 0 01-3.13 11.11 18.16 18.16 0 01-8.39 6.42 32.33 32.33 0 01-11.55 2 30.73 30.73 0 01-11.75-2.1 18.65 18.65 0 01-8.38-6.49 18.11 18.11 0 01-3.11-10.68zm9.42-.05a7.43 7.43 0 001.71 4.87 10.76 10.76 0 004.81 3.13 22 22 0 007.27 1.07 21.91 21.91 0 007.21-1.13 10.5 10.5 0 004.81-3.19 7.48 7.48 0 001.68-4.95 7.21 7.21 0 00-1.72-4.75 10.91 10.91 0 00-4.84-3.16 21.59 21.59 0 00-7.29-1.09 21.68 21.68 0 00-7.23 1.14 10.52 10.52 0 00-4.76 3.21 7.5 7.5 0 00-1.65 4.85zM98.27 151.85a32.33 32.33 0 006.14-10.52 36.88 36.88 0 002.1-12.77 34.93 34.93 0 00-4.85-18.09 33.58 33.58 0 00-13.23-12.55 39.46 39.46 0 00-19.13-4.45l-68.57.34.5 99.73 26.91-.13L28 164l34.46-.17 16.72 29.33 30.73-.15-21.14-33.71a33 33 0 009.5-7.45zm-20.18-16.73a12.31 12.31 0 01-4.08 4.6 10.2 10.2 0 01-5.64 1.72l-40.48.2-.13-25.64 40.55-.2a9.54 9.54 0 015.59 1.77 13.09 13.09 0 014.1 4.79 13.61 13.61 0 011.57 6.33 13.46 13.46 0 01-1.48 6.43zM186 195.05q21.56-.11 37.11-6.45t23.79-18.2q8.22-11.84 8.15-28.13t-8.43-28q-8.34-11.74-24-17.89t-37.18-6q-21.56.11-37.11 6.41t-23.82 18.13q-8.27 11.8-8.19 28.09t8.47 28q8.38 11.76 24 18t37.21 6.04zm-42.75-52.15a22.9 22.9 0 015-15q5.07-6.3 14.62-9.64t22.75-3.41q13.22-.08 22.79 3.18t14.72 9.5a24.41 24.41 0 01.15 29.85q-5.07 6.3-14.63 9.64t-22.75 3.41q-13.2.08-22.79-3.18t-14.71-9.5a22.94 22.94 0 01-5.15-14.85zM353.19 122.87l30.33 68.79 25.97-.13L453.44 91.5l-29.19.14-22.85 51.23-4.41 14.03h-.29l-5.27-13.17L367.19 92l-28.31.14-23.87 52.26-4.84 13.66-.37.01-4.32-13.4-23.73-52.32-29.11.14 44.93 99.59 25.89-.12 29.73-69.09zM280.75 271.09a32.08 32.08 0 006.07-10.48 37 37 0 002.06-12.73 35.1 35.1 0 00-4.82-18.09 33.21 33.21 0 00-13.19-12.55 39.42 39.42 0 00-19.12-4.45l-102.57.59.5 99.74 26.91-.13-.14-29.41 68.53-.43 16.72 29.33 30.73-.16-21.14-33.77a32.56 32.56 0 009.46-7.46zm-20.14-16.66a12.21 12.21 0 01-4.09 4.61 10.06 10.06 0 01-5.64 1.71l-74.55.46-.12-25.59 74.62-.46a9.48 9.48 0 015.58 1.77 13.07 13.07 0 014.14 4.74 13.68 13.68 0 011.57 6.34 13.51 13.51 0 01-1.51 6.42zM380.24 216.59a57 57 0 00-54.75.27A53.43 53.43 0 00305.75 236a50.81 50.81 0 00.26 52.58 53.51 53.51 0 0019.93 19 56.71 56.71 0 0054.75-.27 53.45 53.45 0 0019.78-19.2 50.81 50.81 0 00-.26-52.58 53.43 53.43 0 00-19.97-18.94zm-3 59.75a26.11 26.11 0 01-10 10 28.59 28.59 0 01-14 3.59 28.22 28.22 0 01-13.95-3.49 26.33 26.33 0 01-10.13-9.85 27.85 27.85 0 01-3.77-14.32 28.29 28.29 0 013.61-14.44 25.78 25.78 0 0110-10 29.7 29.7 0 0128-.14 26.11 26.11 0 0110.1 9.85 29.77 29.77 0 01.14 28.75zM548.77 211.25l-18.37 52.6-3.68 12.63h-.22l-3.06-11.79-17.87-53.16-28.3.14-17.56 53.63-2.58 11.52-.37.01-3.43-11.28-19.26-53.74-28.38.14 36.72 99.64 27.28-.14 21.89-67.58 22.55 67.36 27.28-.13 35.74-99.99-28.38.14zM493.76 180.81l24.91-24.91 24.92 24.91 14.7-14.71-24.91-24.91 24.91-24.91-14.7-14.71-24.92 24.91-24.91-24.91-14.71 14.71 24.92 24.91-24.92 24.91 14.71 14.71zM99.23 17.64c-.44-1-.88-2-1.33-2.94A24.39 24.39 0 0086.54 2.88 18 18 0 0079.28.71C77.14.58 75 0 72.88 0c-5.07.09-9.78 1.76-14.37 3.82a2.94 2.94 0 00-.5.31 48.19 48.19 0 00-8 7.3 26.29 26.29 0 00-5 13.24 71.7 71.7 0 00.63 10.25 5.29 5.29 0 00.31 1.43 69.76 69.76 0 005 10.58 9.55 9.55 0 002.18 2.35 23.53 23.53 0 003.44 2.23c1.89 1 3.87 1.9 5.75 2.93A9 9 0 0066 55.52a59.57 59.57 0 0014.31.09 15.18 15.18 0 003.09-.83c1.1-.41 2.13-1 3.21-1.44A18.26 18.26 0 0094.84 47a29.44 29.44 0 003.58-6.71c1.58-4.46 2.81-9 2.42-13.18-.02-4.54-.44-6.85-1.61-9.47zm-15.6 20.84c-1.35 2.3-3.08 4-5.87 4.32-2 .21-4.08.44-6.12.55a7.39 7.39 0 01-4.13-1.3A17.31 17.31 0 0162 36.47a8.53 8.53 0 01-1.1-2.37 24.91 24.91 0 01-.24-11.89 14 14 0 013.45-6.38c2.21-2.54 5.25-3.31 8.44-3.42a13.09 13.09 0 017.54 2.08c3.24 2.13 5.79 5 5.93 9.25 0 1 0 2 .06 2.93a19.34 19.34 0 01-2.45 11.81zM161.86 16.93a15 15 0 00-2.86-4.37 42.43 42.43 0 00-8.06-6.31 19.84 19.84 0 00-8.79-3c-3.58-.47-7.2-.7-10.81-.84-4.5-.18-9-.2-13.49-.23a10.52 10.52 0 00-4.34.77 12.14 12.14 0 00-.26 1.78c0 1.66.09 3.32.13 5 .12 6.06.22 12.12.36 18.18 0 1.56.07 3.14.25 4.69.58 4.87.33 9.77.43 14.66a39.56 39.56 0 00.39 7.54 4.92 4.92 0 00.88.4 36.35 36.35 0 008.45.85c2.24-.07 4.49-.07 6.74-.13.68 0 1.36-.12 2-.2 2.34-.27 4.67-.53 7-.81 5.06-.62 9.49-2.85 13.76-5.44 2.47-1.5 4.11-3.87 6-6a17.26 17.26 0 003.36-6.84 40 40 0 001.27-12.52 15.56 15.56 0 00-1-4c-.37-1.06-.96-2.11-1.41-3.18zm-17.32 21.7A21.07 21.07 0 01131.47 43c-.87 0-1.73.06-3 .1-.07-3.4-.16-6.5-.19-9.61s0-6.44 0-9.66-.94-6.17-.43-9.46a18.38 18.38 0 011.94-.36 25.58 25.58 0 0111.72 2 10.6 10.6 0 014 2.91 18.23 18.23 0 013.53 6c1.76 4.78-.34 10.62-4.5 13.71zM38.81 46.35c-.62-2.28-.62-2.38-2.92-2.37-4.2 0-8.4.07-12.6.06a51.8 51.8 0 01-8.86-.31c0-1.46-.15-2.71-.14-4q.15-10.39.36-20.79c0-2.83.18-5.66.25-8.49 0-1.86.06-3.71 0-5.57a2.22 2.22 0 00-1.72-2.42A49 49 0 007.41 2c-1.07-.05-2.14.13-3.22.14C1.06 2.15.71 2.5.8 5.72s.21 6.44.25 9.66c0 2.93-.13 5.87 0 8.79C1.3 30 .7 35.87 1 41.73 1.11 45.14.76 48.56.66 52a9.25 9.25 0 00.1 2A2.42 2.42 0 003 56a6.56 6.56 0 001.47-.05 66.05 66.05 0 0110.24-.15c3.62.08 7.23.08 10.85.05 3.32 0 6.63-.13 10-.2a14.45 14.45 0 001.75-.08A1.79 1.79 0 0039 53.88a18.73 18.73 0 00-.19-7.53zM192.47 3.88c-.16-1.41-.53-1.83-2-2a14.13 14.13 0 00-1.47-.06c-2.05 0-4.1-.09-6.15-.05-4.49.09-4.74-.44-4.61 4.71.07 2.63.42 5.25.48 7.88.13 6.24.14 12.49.23 18.73 0 2.44.19 4.88.19 7.32 0 4.19-.07 8.39-.12 12.58a2.89 2.89 0 001 2.6c4.93.74 9.89.5 12.85-.7a19.08 19.08 0 00.57-3.91c-.07-5.95 0-11.91 0-17.86 0-5.08 0-10.15-.11-15.22-.1-4.68-.33-9.36-.86-14.02z"/></svg>