<svg id="Layer_1" data-name="Layer 1" xmlns="http://www.w3.org/2000/svg" viewBox="0 0 1463.78 997.38"><defs><style>.cls-1{fill:#21543a}</style></defs><g id="festival"><path class="cls-1" d="M766.49 883.09l79.15-.39.11 23.27-53 .26.12 25.75 45.47-.23.11 21.87-45.47.22.2 41.35-26.15.12zM916.75 941a14 14 0 00-2.89-7 16.4 16.4 0 00-6.42-5 20.3 20.3 0 00-8.5-1.77 20.55 20.55 0 00-10 2.57 18.3 18.3 0 00-7.35 8q-2.77 5.5-2.73 14a30.94 30.94 0 002.5 12.94 17.67 17.67 0 006.93 8.05 19.26 19.26 0 0010.32 2.68 21.88 21.88 0 007.34-1.15 12.15 12.15 0 007.89-7.76l27.23-.13a37.24 37.24 0 01-7.55 15 43.25 43.25 0 01-14.56 11.46 44.09 44.09 0 01-19.82 4.47 44.68 44.68 0 01-23.3-6 42.79 42.79 0 01-16.13-16.46 48.1 48.1 0 01-.23-45.59 43.41 43.41 0 0115.93-16.63 44.49 44.49 0 0123.28-6.26 43.44 43.44 0 0123.06 5.95 41.75 41.75 0 0115.51 16.22 47.1 47.1 0 015.53 22.41c0 1.21 0 2.38-.11 3.5s-.16 2.33-.27 3.6l-67.75.33 1.23-17.25zM993.94 997q-12.45.06-21-4.27a30.07 30.07 0 01-12.68-11.33 29.25 29.25 0 01-4.21-15.08h24.36a12.28 12.28 0 001.75 5.6 9.87 9.87 0 004.48 3.73 20.88 20.88 0 0013.78.31 7.41 7.41 0 003.58-2.7 7.28 7.28 0 001.09-4.09 5.31 5.31 0 00-1.58-4 11.27 11.27 0 00-4.72-2.41 64.32 64.32 0 00-8.51-1.61 56.82 56.82 0 01-16.09-4.15 26.27 26.27 0 01-11.06-8.81Q959 942.46 959 933.8a27.06 27.06 0 013.89-14.88 25.23 25.23 0 0111.51-9.55q7.56-3.33 18.22-3.39a45.4 45.4 0 0118.71 3.55A29.55 29.55 0 011024 919.7a26.13 26.13 0 014.61 15.16l-24.84-.05a9.71 9.71 0 00-1.47-4.28 7.82 7.82 0 00-3.61-2.95 14.27 14.27 0 00-5.94-1 12.56 12.56 0 00-5 .88 6.58 6.58 0 00-2.92 2.33 6.07 6.07 0 00-.93 3.35 5.9 5.9 0 001.09 3.79 8.54 8.54 0 004.18 2.2 84.38 84.38 0 0010.2 1.87c.54.06 1.12.13 1.73.24l1.73.32a59.32 59.32 0 0115.54 4.55 22.28 22.28 0 019.41 8.12c2.18 3.45 3.29 7.91 3.32 13.35q0 9.66-4.79 16.24a28.93 28.93 0 01-13.24 9.85 53.25 53.25 0 01-19.13 3.33zM1086.45 993.74a40.87 40.87 0 01-14.28-2.32q-6.45-2.37-11-9.73t-4.56-21.15l-.15-30.52-16.42.08-.11-21.62 16.43-.08-.12-24.68 25.41-.29.13 24.84 23.1-.11.11 21.62-23.11.11.16 31.69a14.28 14.28 0 001.31 6.47 8.08 8.08 0 003.4 3.61 10.51 10.51 0 005 1.09l13.45-.06.11 21zM1135.85 897.93a16.64 16.64 0 01-8-1.77 12.6 12.6 0 01-5.23-4.93 14.38 14.38 0 01-.06-13.86 12.77 12.77 0 015.17-5 16.67 16.67 0 018-1.9 17 17 0 018.21 1.82 12.82 12.82 0 015.23 5 13.71 13.71 0 011.81 6.92 13.93 13.93 0 01-1.74 7 12.3 12.3 0 01-5.22 4.94 17.86 17.86 0 01-8.17 1.78zm-12.58 10.13h25.38l.43 85.49-25.42.12zM1163.39 907.87l26.91-.14 16.22 43.57 2.45 10.06 2.17-10.08 15.8-43.73 27.06-.13-33.24 85.66-23.36.11zM1300.35 995.49a35.09 35.09 0 01-20.25-6A41.33 41.33 0 011266 973a51.67 51.67 0 01-5.2-22.88 51.11 51.11 0 015-22.84 41.84 41.84 0 0114-16.61 34.73 34.73 0 0120-6.21 40.88 40.88 0 0111.68 1.55 31.21 31.21 0 019.6 4.62 24.31 24.31 0 016.76 7.39v-11l24.1-.12.42 85.49-24.18.12-.06-10.81a25.1 25.1 0 01-6.64 7.38 30.53 30.53 0 01-9.47 4.7 40 40 0 01-11.66 1.71zm6.07-23.47a19.59 19.59 0 0010.47-2.94 20.17 20.17 0 007.34-8 23.81 23.81 0 002.63-11.24 23 23 0 00-2.78-11.12 21.22 21.22 0 00-7.47-8 19 19 0 00-10.33-2.92 20.42 20.42 0 00-10.3 2.74 19.14 19.14 0 00-7.39 7.71 24.18 24.18 0 00-2.67 11.77 24.69 24.69 0 002.82 12 18.67 18.67 0 007.47 7.55 20.74 20.74 0 0010.21 2.43zM1375.53 876l25.41-.13.57 116.28-25.41.12z"/></g><g id="row-01"><path class="cls-1" d="M247.86 385.55a82.09 82.09 0 0015.6-26.7 93.77 93.77 0 005.33-32.43q-.12-25.5-12.32-45.93a85.09 85.09 0 00-33.59-31.86q-21.37-11.44-48.56-11.31l-174.1.86 1.24 253.24 68.34-.33-.37-74.67L157 416l42.45 74.47 78-.39-53.69-85.58a83.49 83.49 0 0024.1-18.95zm-51.23-42.48a31.14 31.14 0 01-10.37 11.69 25.54 25.54 0 01-14.32 4.35l-102.79.51-.31-65 103-.51a24.13 24.13 0 0114.16 4.51 33.15 33.15 0 0110.49 12.05 35.51 35.51 0 01.16 32.4zM470.72 495.25q54.75-.25 94.28-16.38t60.39-46.2q20.89-30.09 20.69-71.43t-21.39-71.11q-21.2-29.79-60.84-45.42t-94.39-15.36q-54.75.27-94.24 16.29t-60.47 46q-21 30-20.79 71.33t21.44 71.23q21.28 29.87 60.93 45.6t94.39 15.45zM362.07 362.83q-.12-22 12.75-38t37.12-24.48q24.27-8.49 57.77-8.66t57.87 8.09q24.33 8.26 37.36 24.11t13.12 37.83q.12 22-12.75 38t-37.12 24.49q-24.26 8.49-57.78 8.66t-57.86-8.09q-24.35-8.26-37.35-24.12t-13.13-37.83zM895.12 311.98l77.02 174.65 65.92-.32 111.59-253.99-74.11.37-58.01 130.07-11.18 35.63h-.75l-13.38-33.45-61.54-131.35-71.88.35-60.61 132.7-12.31 34.69-.93.01-10.96-34.02-60.24-132.85-73.93.37 114.09 252.87 65.73-.32 75.48-175.41z"/></g><g id="row-02"><path class="cls-1" d="M711.19 688.33a82 82 0 0015.42-26.62 95 95 0 005.24-32.33q-.14-25.51-12.24-45.93a84.45 84.45 0 00-33.49-31.87q-21.37-11.43-48.57-11.3l-260.41 1.52 1.25 253.2 68.34-.33-.37-74.67 174-1.1 42.45 74.46 78-.38-53.68-85.77a82.53 82.53 0 0024.06-18.88zM660.06 646a31.09 31.09 0 01-10.38 11.69 25.5 25.5 0 01-14.32 4.36l-189.28 1.17-.32-65 189.47-1.18a24.32 24.32 0 0114.18 4.49 33.28 33.28 0 0110.49 12.06 35.57 35.57 0 01.16 32.39zM963.81 549.93a140.14 140.14 0 00-69.55-17.44q-37.8.18-69.46 18.13a135.69 135.69 0 00-50.13 48.47 129 129 0 00.66 133.52 135.74 135.74 0 0050.61 48.25q31.83 17.73 69.63 17.54a139.48 139.48 0 0069.37-18.22 135.7 135.7 0 0050.22-48.76 128.91 128.91 0 00-.66-133.51 135.6 135.6 0 00-50.69-47.98zm-7.54 151.71a66.34 66.34 0 01-25.39 25.27 72.46 72.46 0 01-35.62 9.09 71.46 71.46 0 01-35.42-8.86 66.73 66.73 0 01-25.72-25q-9.5-16-9.59-36.36t9.13-36.54A65.3 65.3 0 01859.05 604a75.43 75.43 0 0171.22-.35 66.11 66.11 0 0125.63 25q9.5 16.15 9.59 36.45t-9.22 36.54zM1391.71 536.37l-46.64 133.56-9.34 32.07-.56.01-7.78-29.95-45.35-134.96-71.88.35-44.58 136.16-6.55 29.27h-.94l-8.7-28.63-48.9-136.44-72.07.35 93.24 252.98 69.27-.34 55.58-171.59 57.26 171.03 69.27-.34 90.74-253.88-72.07.35z"/></g><path class="cls-1" d="M1252.04 459.09l63.26-63.26 63.26 63.26 37.33-37.34-63.25-63.26 63.25-63.26-37.33-37.34-63.26 63.26-63.26-63.26-37.34 37.34 63.26 63.26-63.26 63.26 37.34 37.34z" id="by"/><g id="lodi"><path class="cls-1" d="M250.3 44.8q-1.68-3.73-3.37-7.46a62 62 0 00-28.86-30 46 46 0 00-18.42-5.51C194.21 1.47 188.8-.09 183.4 0c-12.88.23-24.84 4.47-36.48 9.7a6.62 6.62 0 00-1.27.77c-7.28 5.63-14.43 11.42-20.33 18.53-6.68 8.08-12.25 23.25-12.75 33.62-.42 8.74.75 17.37 1.59 26a13.07 13.07 0 00.78 3.63c3.77 9.2 7.54 18.41 12.8 26.87a23.87 23.87 0 005.53 6 60.9 60.9 0 008.75 5.67c4.79 2.61 9.81 4.81 14.59 7.45a23.24 23.24 0 009.21 2.72c12.1 1.13 24.22 2 36.34.25a40.69 40.69 0 007.85-2.12c2.79-1 5.4-2.51 8.15-3.67 8.4-3.53 15.77-8.46 21-16.06a73.91 73.91 0 009.1-17c4-11.31 7.14-22.79 6.15-33.45-.08-11.61-1.14-17.48-4.11-24.11zm-39.6 52.91c-3.42 5.84-7.82 10.22-14.92 11-5.17.53-10.34 1.12-15.52 1.4-3.83.21-7.2-1.38-10.48-3.31-5.94-3.49-10.22-8.56-13.95-14.15a21.79 21.79 0 01-2.8-6c-2.85-10-2.63-20.1-.6-30.18 1.26-6.24 4.65-11.51 8.74-16.21 5.62-6.43 13.35-8.4 21.45-8.68a33.06 33.06 0 0119.14 5.29c8.23 5.41 14.69 12.68 15.05 23.47.08 2.48.1 5 .15 7.44.91 10.54-.79 20.62-6.26 29.93zM409.32 43a38.38 38.38 0 00-7.38-11.12c-5.95-6.48-13.24-11.16-20.47-16-6.84-4.61-14.46-6.68-22.33-7.69C350.05 7 340.86 6.4 331.7 6c-11.41-.46-22.83-.5-34.25-.58a26.87 26.87 0 00-11 2 31.17 31.17 0 00-.66 4.5c0 4.22.24 8.43.32 12.65.32 15.39.58 30.78.92 46.17.09 4 .19 8 .65 11.9 1.48 12.38.83 24.81 1.09 37.23.14 6.4-.38 12.86 1 19.15a12.06 12.06 0 002.25 1 91.31 91.31 0 0021.43 2.17c5.71-.19 11.42-.18 17.13-.33 1.73-.05 3.46-.31 5.18-.5 5.93-.68 11.86-1.35 17.78-2.08 12.84-1.57 24.09-7.23 34.93-13.81 6.26-3.8 10.44-9.81 15.1-15.3A43.46 43.46 0 00412.21 93a100.94 100.94 0 003.24-31.78c-.2-3.39-1.43-6.78-2.54-10-.91-2.86-2.44-5.48-3.59-8.22zm-44 55.08a53.43 53.43 0 01-33.18 11c-2.2 0-4.4.13-7.56.24-.17-8.62-.4-16.51-.47-24.41-.08-8.17 0-16.34 0-24.5 0-7.9-2.38-15.69-1.09-24 1.63-.31 3.26-.75 4.92-.91 10.36-1 20.2 1.3 29.76 5a26.64 26.64 0 0110.15 7.38 46.07 46.07 0 019 15.29c4.38 12.25-.93 27.07-11.51 34.91zM96.89 117.68c-1.57-5.78-1.58-6-7.4-6-10.67 0-21.34.19-32 .17-7.15 0-14.33.53-22.49-.79-.14-3.71-.39-6.9-.35-10.08q.39-26.4.9-52.8c.14-7.19.47-14.37.64-21.56.11-4.71.16-9.42.11-14.12 0-3-1.4-5.67-4.38-6.16a123 123 0 00-14.76-1.28c-2.71-.13-5.44.32-8.16.34-7.95 0-8.84.95-8.63 9.12S.92 30.88 1 39.06C1.12 46.49.68 54 1 61.37 1.66 76.24.14 91.08.79 106c.38 8.65-.5 17.35-.76 26a24.17 24.17 0 00.25 5.18 6.13 6.13 0 005.7 5A17.17 17.17 0 009.7 142c8.65-1.14 17.33-.58 26-.39 9.17.21 18.35.2 27.53.14 8.43-.07 16.86-.33 25.28-.52a36.54 36.54 0 004.45-.2c2.65-.39 4.07-1.7 4.42-4.27.86-6.35 1.25-12.71-.49-19.08zM487 9.86c-.4-3.6-1.34-4.64-5.09-5-1.23-.13-2.47-.19-3.71-.2-5.21-.06-10.42-.22-15.62-.12-11.41.22-12-1.11-11.71 12 .18 6.68 1.08 13.34 1.22 20 .33 15.85.37 31.71.59 47.56.08 6.2.47 12.39.47 18.58 0 10.65-.16 21.3-.3 32 0 2.6.44 4.93 2.64 6.6 12.52 1.89 25.11 1.26 32.64-1.78.58-3.12 1.49-6.35 1.45-9.93-.19-15.11-.08-30.24-.13-45.36-.05-12.88 0-25.76-.28-38.64-.17-12.01-.83-23.88-2.17-35.71z"/></g></svg>