<svg id="b61729fd-5f21-4e45-92e5-6d2525f35e25" data-name="row-by-row" xmlns="http://www.w3.org/2000/svg" viewBox="0 0 2656.34 694.6"><defs><style>.b639f539-4bce-42d1-9547-5196ba900575{fill:#1f5439}</style></defs><path class="b639f539-4bce-42d1-9547-5196ba900575" d="M1974.77 580.3l79.14-.39.12 23.27-53 .26.12 25.75 45.47-.23.11 21.87-45.47.23.2 41.34-26.15.13zM2125 638.23a13.84 13.84 0 00-2.88-7 16.54 16.54 0 00-6.42-5 20 20 0 00-8.5-1.77 20.41 20.41 0 00-10 2.57 18.33 18.33 0 00-7.35 8q-2.78 5.51-2.74 14a31.12 31.12 0 002.51 12.94 17.71 17.71 0 006.93 8 19.34 19.34 0 0010.32 2.67 21.67 21.67 0 007.34-1.15 13 13 0 005-3.07 12.83 12.83 0 002.87-4.68l27.23-.14a37.17 37.17 0 01-7.56 15 43.24 43.24 0 01-14.55 11.46 47.34 47.34 0 01-43.13-1.52 42.93 42.93 0 01-16.07-16.39 48.19 48.19 0 01-.23-45.6 43.44 43.44 0 0115.94-16.63 44.45 44.45 0 0123.27-6.26 43.4 43.4 0 0123.06 6 41.54 41.54 0 0115.51 16.22 46.92 46.92 0 015.56 22.41c0 1.21 0 2.38-.11 3.51s-.17 2.33-.27 3.59l-67.75.34 1.23-17.26zM2202.22 694.22q-12.46.06-21-4.28a30.14 30.14 0 01-12.69-11.32 29.34 29.34 0 01-4.2-15.08h24.36a12.28 12.28 0 001.75 5.61 9.94 9.94 0 004.48 3.73 21 21 0 0013.78.3 7.5 7.5 0 003.58-2.7 7.28 7.28 0 001.09-4.09 5.33 5.33 0 00-1.59-4 11.05 11.05 0 00-4.71-2.41 61.49 61.49 0 00-8.51-1.61 56.89 56.89 0 01-16.12-4.17 26.34 26.34 0 01-11.06-8.82q-4.11-5.76-4.15-14.42a27 27 0 013.89-14.87 25.17 25.17 0 0111.51-9.55q7.56-3.33 18.21-3.39a45.37 45.37 0 0118.71 3.54 29.64 29.64 0 0112.73 10.17 26.22 26.22 0 014.61 15.16h-24.84a9.79 9.79 0 00-1.47-4.28 7.89 7.89 0 00-3.61-3 14.47 14.47 0 00-5.94-1 12.55 12.55 0 00-5 .89 6.39 6.39 0 00-2.92 2.33 6.75 6.75 0 00.16 7.13 8.34 8.34 0 004.18 2.2 84 84 0 0010.2 1.94c.55 0 1.13.13 1.73.23l1.74.33a59.14 59.14 0 0115.53 4.54 22.31 22.31 0 019.42 8.12q3.27 5.19 3.32 13.36 0 9.64-4.79 16.24a28.91 28.91 0 01-13.24 9.84 53.28 53.28 0 01-19.14 3.33zM2294.73 691a40.38 40.38 0 01-14.28-2.32q-6.45-2.36-10.95-9.72t-4.56-21.15l-.15-30.53-16.42.08-.11-21.62 16.42-.08-.11-24.68 25.41-.29.12 24.85 23.11-.12.1 21.62-23.1.12.15 31.68a14.52 14.52 0 001.31 6.47 8.12 8.12 0 003.41 3.62 10.57 10.57 0 005 1.09l13.45-.07.1 21zM2344.13 595.15a16.76 16.76 0 01-8-1.78 12.58 12.58 0 01-5.23-4.92 14.44 14.44 0 01-.07-13.87 12.8 12.8 0 015.18-5 16.67 16.67 0 018-1.89 17 17 0 018.21 1.81 12.94 12.94 0 015.23 5 13.84 13.84 0 011.81 6.92 14.07 14.07 0 01-1.74 7 12.28 12.28 0 01-5.22 4.93 17.89 17.89 0 01-8.17 1.8zm-12.58 10.13H2356.92l.42 85.5-25.41.12zM2371.67 605.08l26.9-.13 16.23 43.57 2.44 10.06 2.18-10.08 15.79-43.73 27.07-.13-33.28 85.65-23.37.12zM2508.62 692.71a35.26 35.26 0 01-20.25-6 41.37 41.37 0 01-14.15-16.48 53.81 53.81 0 01-.19-45.71 41.9 41.9 0 0114-16.62 34.65 34.65 0 0120-6.2 40.24 40.24 0 0111.68 1.55 31 31 0 019.6 4.61 24.46 24.46 0 016.76 7.4l-.06-11 24.1-.12.42 85.49-24.17.12-.06-10.81a25 25 0 01-6.65 7.38 30.5 30.5 0 01-9.46 4.71 40 40 0 01-11.57 1.68zm6.08-23.47a19.64 19.64 0 0010.46-2.94 20.27 20.27 0 007.35-8 23.83 23.83 0 002.62-11.24 23 23 0 00-2.77-11.13 21.34 21.34 0 00-7.47-8 18.87 18.87 0 00-10.33-2.92 20.49 20.49 0 00-10.3 2.73 19.23 19.23 0 00-7.4 7.71 27 27 0 00.16 23.72 18.75 18.75 0 007.47 7.56 20.84 20.84 0 0010.21 2.51zM2583.8 573.25l25.42-.12.57 116.27-25.42.12zM248.53 385.37a82.09 82.09 0 0015.6-26.7 94 94 0 005.34-32.43q-.14-25.51-12.33-45.93a85.09 85.09 0 00-33.59-31.86Q202.18 237 175 237.14L.89 238l1.24 253.24 68.35-.34-.38-74.66 87.52-.44 42.45 74.46 78-.38-53.66-85.58a83.49 83.49 0 0024.12-18.93zm-51.23-42.48a31.14 31.14 0 01-10.37 11.69 25.51 25.51 0 01-14.32 4.35l-102.78.51-.32-65 103-.51a24.13 24.13 0 0114.17 4.49 33.15 33.15 0 0110.49 12.05 34.56 34.56 0 014 16.09 34.21 34.21 0 01-3.87 16.33zM471.39 498.29q54.75-.27 94.23-16.39T626 435.7q20.9-30.07 20.69-71.42t-21.39-71.12q-21.19-29.79-60.84-45.41t-94.39-15.37q-54.75.27-94.23 16.29t-60.48 46q-21 30-20.79 71.32t21.49 71.22q21.29 29.88 60.93 45.6t94.4 15.48zM362.74 365.86q-.12-22 12.75-37.95t37.12-24.48q24.27-8.51 57.77-8.67t57.87 8.09q24.35 8.26 37.36 24.12t13.12 37.83q.12 22-12.74 38t-37.13 24.48q-24.25 8.5-57.77 8.67t-57.87-8.1q-24.35-8.26-37.35-24.12t-13.13-37.87zM895.79 315.5l77.03 174.66 65.91-.32 111.6-253.99-74.12.37-58.01 130.08-11.18 35.62h-.75l-13.38-33.45-61.54-131.35-71.88.35-60.61 132.7-12.31 34.69-.92.01-10.97-34.02L714.42 238l-73.93.37 114.09 252.87 65.73-.32 75.48-175.42zM1903.75 384.52a81.68 81.68 0 0015.42-26.61 94.56 94.56 0 005.24-32.33q-.12-25.51-12.24-45.93a84.45 84.45 0 00-33.49-31.87q-21.37-11.43-48.56-11.3L1569.7 238l1.3 253.24 68.34-.34-.37-74.66 174-1.1 42.45 74.46 78-.39-53.68-85.76a82.26 82.26 0 0024.01-18.93zm-51.13-42.3a31.07 31.07 0 01-10.37 11.69 25.6 25.6 0 01-14.32 4.36l-189.29 1.17-.32-65 189.47-1.18a24.3 24.3 0 0114.18 4.49 33.15 33.15 0 0110.49 12.05 34.59 34.59 0 014 16.09 34.15 34.15 0 01-3.84 16.33zM2156.37 244.49a140 140 0 00-69.54-17.44q-37.82.18-69.46 18.12a135.82 135.82 0 00-50.14 48.48 129 129 0 00.66 133.51 135.92 135.92 0 0050.61 48.26q31.83 17.73 69.64 17.54a139.58 139.58 0 0069.36-18.22 135.89 135.89 0 0050.23-48.74 129 129 0 00-.66-133.51 135.55 135.55 0 00-50.7-48zm-7.54 151.7a66.07 66.07 0 01-25.39 25.27 72.33 72.33 0 01-35.61 9.12 71.47 71.47 0 01-35.43-8.86 66.76 66.76 0 01-25.72-25q-9.5-16.05-9.59-36.35t9.14-36.55a65.34 65.34 0 0125.38-25.26 75.43 75.43 0 0171.22-.35 66.16 66.16 0 0125.64 25q9.48 16.16 9.58 36.45t-9.22 36.53zM2584.28 236.48l-46.64 133.55-9.34 32.08h-.56l-7.78-29.95-45.36-134.96-71.87.35-44.59 136.16-6.55 29.27h-.93l-8.71-28.63-48.9-136.44-72.06.36 93.23 252.97 69.27-.34 55.58-171.59 57.27 171.03 69.26-.34 90.74-253.88-72.06.36zM1252.71 462.12l63.26-63.26 63.26 63.26 37.33-37.34-63.25-63.26 63.25-63.26-37.33-37.34-63.26 63.26-63.26-63.26-37.34 37.34 63.26 63.26-63.26 63.26 37.34 37.34z"/><path class="b639f539-4bce-42d1-9547-5196ba900575" d="M248.25 385.35a81.93 81.93 0 0015.61-26.72 93.73 93.73 0 005.34-32.43q-.12-25.51-12.33-45.95a85.14 85.14 0 00-33.6-31.87q-21.37-11.44-48.58-11.31l-174.15.86 1.25 253.32 68.36-.34-.37-74.69 87.54-.43 42.46 74.48 78-.38-53.7-85.61a83.53 83.53 0 0024.17-18.93zM197 342.85a31.17 31.17 0 01-10.37 11.7 25.69 25.69 0 01-14.32 4.35l-102.82.51-.32-65 103-.5a24.16 24.16 0 0114.18 4.49 33.1 33.1 0 0110.49 12.06 35.51 35.51 0 01.16 32.4zM250.19 44.78q-1.68-3.73-3.37-7.46A62 62 0 00218 7.3a46 46 0 00-18.42-5.51c-5.45-.32-10.86-1.88-16.26-1.79-12.87.23-24.83 4.47-36.46 9.69a6.87 6.87 0 00-1.27.78c-7.28 5.62-14.43 11.41-20.32 18.54-6.68 8.07-12.25 23.24-12.75 33.6-.42 8.74.75 17.37 1.59 26a13.07 13.07 0 00.78 3.63c3.76 9.19 7.53 18.4 12.8 26.86a24.38 24.38 0 005.52 5.95 60.84 60.84 0 008.75 5.66c4.79 2.61 9.8 4.82 14.58 7.45a23.24 23.24 0 009.21 2.72c12.1 1.12 24.21 2 36.32.25a40.5 40.5 0 007.85-2.12c2.78-1 5.4-2.51 8.15-3.67 8.39-3.53 15.75-8.45 21-16.05a74 74 0 009.09-17c4-11.31 7.14-22.78 6.15-33.44-.09-11.58-1.15-17.44-4.12-24.07zm-39.58 52.89c-3.42 5.83-7.82 10.22-14.91 11-5.17.53-10.34 1.12-15.52 1.41-3.83.21-7.19-1.38-10.48-3.32-5.94-3.48-10.21-8.55-13.94-14.14a21.73 21.73 0 01-2.8-6c-2.85-10-2.62-20.1-.59-30.18 1.25-6.24 4.64-11.5 8.73-16.19 5.61-6.44 13.35-8.41 21.44-8.69a33.09 33.09 0 0119.14 5.3c8.22 5.4 14.67 12.67 15 23.46.09 2.47.11 5 .15 7.43.94 10.53-.75 20.62-6.22 29.92zM409.14 43a38.3 38.3 0 00-7.37-11.11c-5.95-6.48-13.24-11.16-20.46-16-6.84-4.6-14.46-6.67-22.33-7.69C349.9 7 340.71 6.4 331.55 6c-11.4-.45-22.82-.5-34.23-.57a26.83 26.83 0 00-11 2 29.84 29.84 0 00-.66 4.5c0 4.21.24 8.42.32 12.64.31 15.38.57 30.77.92 46.15.08 4 .18 8 .65 11.89 1.47 12.38.82 24.81 1.09 37.21.13 6.41-.39 12.86 1 19.15a12 12 0 002.24 1 91.31 91.31 0 0021.43 2.16c5.7-.18 11.41-.17 17.11-.32 1.74-.05 3.46-.31 5.19-.5 5.92-.68 11.85-1.35 17.77-2.08 12.83-1.57 24.08-7.23 34.91-13.8 6.26-3.8 10.44-9.81 15.1-15.3A43.46 43.46 0 00412 93a100.85 100.85 0 003.24-31.76c-.2-3.39-1.43-6.78-2.54-10.05-.91-2.85-2.41-5.47-3.56-8.19zm-43.96 55A53.38 53.38 0 01332 109c-2.19 0-4.39.13-7.55.24-.17-8.61-.4-16.5-.47-24.4-.08-8.16 0-16.33 0-24.49 0-7.89-2.38-15.68-1.09-24 1.63-.31 3.26-.75 4.92-.9 10.35-1 20.19 1.3 29.75 5a26.56 26.56 0 0110.14 7.37 46 46 0 019 15.29c4.37 12.28-.94 27.09-11.52 34.89zM96.85 117.63c-1.57-5.78-1.58-6-7.4-6-10.66 0-21.33.19-32 .17-7.15 0-14.33.54-22.48-.79-.14-3.7-.4-6.89-.35-10.07q.38-26.4.89-52.78c.14-7.18.48-14.36.65-21.55q.16-7.07.1-14.12c0-3-1.39-5.66-4.37-6.16a127.23 127.23 0 00-14.73-1.28c-2.71-.12-5.44.33-8.16.34-7.95.06-8.84 1-8.63 9.13S.92 30.87 1 39c.09 7.43-.35 14.88 0 22.3.66 14.91-.86 29.7-.21 44.62.38 8.64-.5 17.33-.76 26a24.11 24.11 0 00.25 5.17 6.14 6.14 0 005.7 5 17.73 17.73 0 003.71-.09c8.66-1.14 17.32-.59 26-.39 9.17.2 18.35.2 27.52.13 8.43-.06 16.85-.32 25.28-.51a36.47 36.47 0 004.44-.2c2.65-.39 4.07-1.7 4.41-4.27.85-6.4 1.24-12.76-.49-19.13zM486.82 9.86c-.39-3.6-1.34-4.65-5.08-5-1.23-.13-2.47-.18-3.71-.19-5.2-.07-10.41-.22-15.61-.12-11.41.22-12-1.12-11.7 11.94.17 6.68 1.08 13.33 1.22 20 .32 15.84.36 31.69.58 47.54.09 6.19.47 12.38.48 18.57 0 10.64-.17 21.29-.31 31.93 0 2.6.45 4.93 2.64 6.6 12.51 1.89 25.11 1.26 32.63-1.78.58-3.12 1.49-6.35 1.45-9.92-.19-15.11-.08-30.23-.13-45.34 0-12.88 0-25.76-.28-38.63-.23-11.92-.87-23.78-2.18-35.6z"/></svg>