<svg xmlns="http://www.w3.org/2000/svg" viewBox="0 0 17.44 17.44"><path fill="currentColor" d="M14.18 0a3.15 3.15 0 012.31 1 3.15 3.15 0 011 2.31v10.9a3.26 3.26 0 01-3.27 3.27H5.94a7.62 7.62 0 001.23-2.38q.11-.39.6-2.37a2 2 0 00.84.76 2.65 2.65 0 001.27.31 4.06 4.06 0 003.36-1.67 6.7 6.7 0 001.3-4.24 4.44 4.44 0 00-.4-1.85 5 5 0 00-1.09-1.57 5.3 5.3 0 00-1.74-1.11 6 6 0 00-2.23-.41 7.47 7.47 0 00-2.21.32 5.67 5.67 0 00-1.74.87 6.5 6.5 0 00-1.22 1.2 5.2 5.2 0 00-.75 1.46 4.63 4.63 0 00-.25 1.5 4.45 4.45 0 00.45 2.05 2.59 2.59 0 001.32 1.25.42.42 0 00.27 0 .32.32 0 00.16-.22l.17-.69a.48.48 0 00-.12-.48 2.62 2.62 0 01-.57-1.7A4 4 0 015.8 5.6a4.06 4.06 0 013-1.21 3.6 3.6 0 012.64.92 3.16 3.16 0 011 2.38 6.48 6.48 0 01-.77 3.25 2.26 2.26 0 01-2 1.34 1.38 1.38 0 01-1.1-.5 1.25 1.25 0 01-.26-1.17q.09-.39.3-1.05c.14-.45.25-.83.33-1.16a3.26 3.26 0 00.13-.85 1.39 1.39 0 00-.27-.92 1 1 0 00-.86-.37 1.44 1.44 0 00-1.14.64 2.58 2.58 0 00-.48 1.58 3 3 0 00.28 1.38l-1.12 4.7a8.59 8.59 0 00-.08 2.88H3.27a3.18 3.18 0 01-2.31-.95 3.17 3.17 0 01-1-2.32V3.27a3.15 3.15 0 011-2.31A3.15 3.15 0 013.27 0z"/></svg>