<svg xmlns="http://www.w3.org/2000/svg" viewBox="0 0 17.85 17.85"><path fill="currentColor" d="M17.79 12.6a5.32 5.32 0 01-1.44 3.74 5.25 5.25 0 01-3.74 1.44c-1.48.09-5.89.09-7.37 0a5.29 5.29 0 01-3.74-1.44A5.32 5.32 0 01.06 12.6C0 11.13 0 6.71.06 5.24A5.32 5.32 0 011.5 1.5 5.35 5.35 0 015.24.06C6.72 0 11.13 0 12.61.06a5.33 5.33 0 013.74 1.44 5.33 5.33 0 011.44 3.74c.08 1.48.08 5.89 0 7.36zm-1.55-3.68c0-1.29.11-4.08-.36-5.26A3 3 0 0014.19 2c-1.17-.47-4-.36-5.26-.36S4.84 1.5 3.67 2A3 3 0 002 3.66c-.46 1.17-.36 4-.36 5.26S1.5 13 2 14.18a3 3 0 001.7 1.7c1.17.46 4 .36 5.26.36s4.08.11 5.26-.36a3 3 0 001.69-1.7c.44-1.18.33-3.96.33-5.26zm-2.74 0a4.58 4.58 0 11-4.57-4.57 4.56 4.56 0 014.57 4.57zm-1.6 0a3 3 0 10-3 3 3 3 0 003-3zm1.79-3.69a1.07 1.07 0 111.07-1.07 1.07 1.07 0 01-1.07 1.07z"/></svg>