<svg xmlns="http://www.w3.org/2000/svg" viewBox="0 0 17.44 17.44"><path fill="currentColor" d="M17.45 3.27v10.9a3.26 3.26 0 01-3.27 3.27H3.27a3.18 3.18 0 01-2.31-.95 3.17 3.17 0 01-1-2.32V3.27a3.15 3.15 0 011-2.31A3.15 3.15 0 013.27 0h10.91a3.15 3.15 0 012.31 1 3.15 3.15 0 01.96 2.27zm-2.91 2.2a5 5 0 01-1.37.39 2.3 2.3 0 001.05-1.33 4.72 4.72 0 01-1.52.58 2.26 2.26 0 00-1.74-.75A2.39 2.39 0 008.58 6.8a2.61 2.61 0 00.05.54 6.66 6.66 0 01-2.74-.74 6.45 6.45 0 01-2.18-1.8A2.37 2.37 0 003.38 6a2.23 2.23 0 001 2 2.71 2.71 0 01-1.14-.29 2.26 2.26 0 00.56 1.52 2.38 2.38 0 001.4.82 2.22 2.22 0 01-.58.09 2.93 2.93 0 01-.44 0 2.48 2.48 0 00.84 1.18 2.31 2.31 0 001.42.48 4.71 4.71 0 01-3 1 3.48 3.48 0 01-.57 0 6.71 6.71 0 003.7 1 6.87 6.87 0 002.38-.4 6.21 6.21 0 001.91-1.08 7 7 0 001.37-1.52 7 7 0 00.85-1.84 6.64 6.64 0 00.28-1.91v-.31a4.68 4.68 0 001.18-1.27z"/></svg>